<?xml version="1.0" encoding="utf-8"?>
<!-- Generator: Adobe Illustrator 16.0.3, SVG Export Plug-In . SVG Version: 6.00 Build 0)  -->
<!DOCTYPE svg PUBLIC "-//W3C//DTD SVG 1.1//EN" "http://www.w3.org/Graphics/SVG/1.1/DTD/svg11.dtd">
<svg version="1.1" id="Layer_1" xmlns="http://www.w3.org/2000/svg" xmlns:xlink="http://www.w3.org/1999/xlink" x="0px" y="0px"
	 width="612px" height="568px" viewBox="0 0 612 568" enable-background="new 0 0 612 568" xml:space="preserve">
<g>
	<g>
		
			<linearGradient id="SVGID_1_" gradientUnits="userSpaceOnUse" x1="289.6899" y1="462.3926" x2="289.6899" y2="359.542" gradientTransform="matrix(0.968 0.2509 -0.2509 0.968 229.9492 -96.1641)">
			<stop  offset="0" style="stop-color:#5F123E"/>
			<stop  offset="1" style="stop-color:#801E1D"/>
		</linearGradient>
		<path fill-rule="evenodd" clip-rule="evenodd" fill="url(#SVGID_1_)" d="M501.374,401.391c0,0-89.545-41.729-175.976-101.397
			c0,0-10.238,95.269-25.808,99.56c0,0,105.32,6.425,180.979,40.311L501.374,401.391z"/>
		<path opacity="0.2" fill="#4D1F1D" d="M351.732,322.74c0,0,67.285,36.469,73.467,47.683l-4.407,10.98l-65.496-33.719
			l51.317,29.142l-2.249,5.513l-57.907-24.702l-5.31,23.012l76.91,28.996l13.533-3.048l6.534-37.687c0,0-53.8-28.928-86.91-51.016
			L351.732,322.74z"/>
		
			<linearGradient id="SVGID_2_" gradientUnits="userSpaceOnUse" x1="245.4087" y1="443.7813" x2="245.4087" y2="61.2207" gradientTransform="matrix(0.968 0.2509 -0.2509 0.968 229.9492 -96.1641)">
			<stop  offset="0" style="stop-color:#E16419"/>
			<stop  offset="1" style="stop-color:#8E1B3E"/>
		</linearGradient>
		<path fill-rule="evenodd" clip-rule="evenodd" fill="url(#SVGID_2_)" d="M345.786,389.95L460.21,26.76l2.878,0.747L356.524,393.55
			C356.524,393.55,349.388,395.644,345.786,389.95z"/>
		
			<radialGradient id="SVGID_3_" cx="180.6362" cy="152.5938" r="94.7656" gradientTransform="matrix(0.8247 0.2138 -0.2462 0.9497 270.1758 -64.2861)" gradientUnits="userSpaceOnUse">
			<stop  offset="0" style="stop-color:#E16419"/>
			<stop  offset="1" style="stop-color:#8D323E"/>
		</radialGradient>
		<polygon fill-rule="evenodd" clip-rule="evenodd" fill="url(#SVGID_3_)" points="328.98,126.251 528.343,147.3 527.92,148.924 
			328.354,128.667 		"/>
		
			<radialGradient id="SVGID_4_" cx="132.5552" cy="327.3271" r="137.7709" gradientTransform="matrix(0.8247 0.2138 -0.2462 0.9497 270.1758 -64.2861)" gradientUnits="userSpaceOnUse">
			<stop  offset="0" style="stop-color:#E16419"/>
			<stop  offset="1" style="stop-color:#8D323E"/>
		</radialGradient>
		<polygon fill-rule="evenodd" clip-rule="evenodd" fill="url(#SVGID_4_)" points="230.366,252.348 508.323,337.494 
			507.629,340.171 229.639,255.158 		"/>
		<path opacity="0.46" fill-rule="evenodd" clip-rule="evenodd" fill="#7E0100" d="M362.583,336.622c0,0,3.147-0.553,6.271,1.625
			c3.134,2.192-4.529,28.52-4.529,28.52l23.056-79.192l-8.557-2.488L362.583,336.622z"/>
		
			<radialGradient id="SVGID_5_" cx="205.1069" cy="70.0869" r="67.1796" gradientTransform="matrix(0.8247 0.2138 -0.2462 0.9497 270.1758 -64.2861)" gradientUnits="userSpaceOnUse">
			<stop  offset="0" style="stop-color:#E16419"/>
			<stop  offset="1" style="stop-color:#8D323E"/>
		</radialGradient>
		<polygon fill-rule="evenodd" clip-rule="evenodd" fill="url(#SVGID_5_)" points="384.531,52.34 526.101,65.25 525.505,67.546 
			383.98,54.467 		"/>
		
			<linearGradient id="SVGID_6_" gradientUnits="userSpaceOnUse" x1="147.8774" y1="370.7568" x2="147.8774" y2="366.5195" gradientTransform="matrix(0.968 0.2509 -0.2509 0.968 229.9492 -96.1641)">
			<stop  offset="0" style="stop-color:#E16419"/>
			<stop  offset="1" style="stop-color:#8E1B3E"/>
		</linearGradient>
		<polygon fill-rule="evenodd" clip-rule="evenodd" fill="url(#SVGID_6_)" points="169.562,266.809 392.145,326.817 
			391.644,328.749 169.01,268.941 		"/>
		<g>
			<path fill="#661B3E" d="M166.554,105.007c-27.464-7.12-45.996-13.963-46.409-14.12l0.259-0.746
				c0.938,0.344,94.554,34.911,174.441,29.441c41.703-2.852,83.476-25.114,111.17-43.289c30.021-19.692,50.418-38.952,50.621-39.142
				l0.421,0.581c-0.199,0.195-20.65,19.508-50.728,39.236c-27.766,18.22-69.644,40.538-111.488,43.405
				C250.182,123.428,201.242,113.998,166.554,105.007z"/>
		</g>
		<g>
			<path fill="#661B3E" d="M116.252,95.905c-0.506-0.131-0.919-0.362-1.232-0.693c-0.946-0.993-0.618-2.463-0.601-2.525l0.679,0.146
				c-0.014,0.047-0.244,1.103,0.417,1.789c0.639,0.665,2.252,1.138,6.291-0.383l0.18,0.745
				C119.464,95.933,117.549,96.243,116.252,95.905z"/>
		</g>
		<g>
			<path fill="#661B3E" d="M349.938,366.07l-0.347-0.648c53.728-40.175,99.271-96.946,128.02-137.499
				c31.146-43.943,49.831-78.835,50.018-79.183l0.586,0.375c-0.179,0.346-18.883,35.274-50.069,79.262
				C449.37,268.982,403.762,325.827,349.938,366.07z"/>
		</g>
		<g>
			<path fill="#661B3E" d="M350.929,374.201l-0.486-0.524C444.385,263.103,524.401,69.346,525.193,67.402l0.628,0.289
				C525.025,69.635,444.961,263.521,350.929,374.201z"/>
		</g>
		<g>
			<path fill="#661B3E" d="M361.489,376.826l0.042-0.793c0.279,0,28.617-0.473,76.574-7.52
				c47.807-7.025,66.641-31.737,66.824-31.984l0.521,0.477c-0.185,0.251-19.188,25.213-67.3,32.295
				C390.146,376.35,361.772,376.821,361.489,376.826z"/>
		</g>
		<polygon opacity="0.46" fill-rule="evenodd" clip-rule="evenodd" fill="#7E0100" points="430.015,123.12 433.878,127.861 
			436.627,118.407 431.636,117.471 		"/>
		<g>
			<path fill="#661B3E" d="M118.416,86.377l0.133-0.784C283.107,109.55,513.501,66.653,515.81,66.215l0.066,0.774
				c-0.577,0.11-58.62,11.001-136.263,18.787C307.95,92.964,204.463,98.902,118.416,86.377z"/>
		</g>
		<path fill-rule="evenodd" clip-rule="evenodd" fill="#661B3E" d="M390.167,52.189c0,0-0.739-1.129-1.826-1.589
			c-1.078-0.464-1.889,1.297-1.889,1.297s-0.22,0.134-0.763-0.197c-0.534-0.351-1.161,0.633-1.161,0.633s-1.195-0.92-3.79-0.983
			c-2.595-0.052-3.107,3.325-3.107,3.325s3.467,2.338,4.445,1.185c-0.225,0.433-3.186,6.089-1.406,6.849
			c1.879,0.795,7.441-7.774,7.441-7.774s1.063,0.013,1.646,0.061C389.758,54.995,389.267,53.991,390.167,52.189z M381.031,60.985
			c-0.704-1.512,2.944-6.516,2.944-6.516l3.172,0.294C387.147,54.763,381.743,62.498,381.031,60.985z"/>
		<path fill-rule="evenodd" clip-rule="evenodd" fill="#661B3E" d="M515.008,64.238c0,0,2.373-2.32,3.691-2.396
			c1.314-0.073,1.184,1.79,1.184,1.79s4.74-3.768,7.193-3.132c2.453,0.635,1.07,5.272,1.07,5.272s1.874-1.953,2.102,0.552
			c0.229,2.51-2.553,28.575-8.517,27.825c-5.96-0.758,0.22-26.516,0.22-26.516l1.217,0.005c0,0-6.484,24.855-1.754,25.143
			c5.752,0.351,7.914-25.41,7.33-26.259c-0.593-0.854-1.002,0.36-1.002,0.36s0.086,3.052-2.029,3.669
			c-2.115,0.614-4.168-3.41-4.168-3.41s-1.203,1.97-2.333,1.277c-1.122-0.698-1.432-1.866-1.432-1.866
			S513.772,68.227,515.008,64.238z"/>
		<path fill-rule="evenodd" clip-rule="evenodd" fill="#661B3E" d="M517.915,146.205c0,0,3.492-3.627,4.759-3.298
			c1.262,0.326,1.092,2.544,1.092,2.544s2.101-3.453,4.492-3.292c2.382,0.169,3.313,4.918,3.313,4.918s0.18-0.187-1.084,2.086
			c-1.257,2.272-5.522-0.542-5.522-0.542s-2.009,3.056-4.152,4.055c-2.146,0.995-1.065-5.253-1.065-5.253l0.688-0.023
			c0,0-1.155,3.734,0.048,4.465c1.207,0.726,3.319-4.135,3.319-4.135l-5.321-0.791l-0.187,0.837c0,0-7.976,16.292-11.333,16.903
			c-3.354,0.613,4.05-17.471,4.05-17.471l0.95,0.096c0,0-6.704,13.861-4.981,15.453c1.728,1.581,9.226-14.971,9.226-14.971
			s-0.406-3.493,0.246-3.605C517.104,144.073,517.915,146.205,517.915,146.205z"/>
		<path fill-rule="evenodd" clip-rule="evenodd" fill="#661B3E" d="M512.035,331.228c-4.06-0.989-9.709,1.692-9.709,1.692
			s0.641-3.183-2.691-2.796c-3.344,0.379-10.88,1.378-10.88,1.378s-3.63,3.088-2.831,5c0.792,1.931,4.369-0.012,4.369-0.012
			s-1.437,6.053,0.383,6.342c1.804,0.284,3.602-3.537,3.602-3.537s-10.771,36.35-2.973,36.969
			c7.793,0.617,20.715-37.736,20.715-37.736S516.079,332.205,512.035,331.228z M490.639,342.155
			c-0.775-0.317,0.607-5.417,0.607-5.417s1.791,1.921,2.483,1.56C493.729,338.298,491.418,342.483,490.639,342.155z
			 M491.271,374.854c-6.33-2.979,4.615-35.868,4.615-35.868s0.688,3.276,2.723,4.115c2.024,0.84,4.005-1.644,4.005-1.644
			s-0.241,2.363,1.451,3.096c1.703,0.721,6.165-4.34,6.165-4.34S497.6,377.838,491.271,374.854z"/>
		<g>
			
				<radialGradient id="SVGID_7_" cx="229.979" cy="396.3809" r="117.254" gradientTransform="matrix(0.8043 0.2835 -0.5967 1.8129 400.418 -386.8359)" gradientUnits="userSpaceOnUse">
				<stop  offset="0" style="stop-color:#E16419"/>
				<stop  offset="1" style="stop-color:#CF463E"/>
			</radialGradient>
			<path fill-rule="evenodd" clip-rule="evenodd" fill="url(#SVGID_7_)" d="M222.76,329.168c0,0,202.158,63.705,263.665,100.814
				c0,0-28.229,23.842-91.756,6.201c-63.521-17.64-131.493-46.342-131.493-46.342L222.76,329.168z"/>
			
				<linearGradient id="SVGID_8_" gradientUnits="userSpaceOnUse" x1="162.4751" y1="571.3818" x2="162.4751" y2="196.6279" gradientTransform="matrix(0.968 0.2509 -0.2509 0.968 229.9492 -96.1641)">
				<stop  offset="0" style="stop-color:#5F123E"/>
				<stop  offset="1" style="stop-color:#D2603B"/>
			</linearGradient>
			<path fill-rule="evenodd" clip-rule="evenodd" fill="url(#SVGID_8_)" d="M509.396,411.978
				c-7.458,17.214-15.036,32.231-22.529,45.32l-0.005,0.019c-38.952,68.208-75.008,83.923-75.008,83.923l-268.656-69.643
				c0,0,3.236-13.812,0.148-40.385c-1.593-13.675-8.721-28.765-21.17-88.352c-10.526-50.335,8.305-90.362,19.498-113.607
				c4.426-9.167,7.196-22.6,7.196-22.6L109.396,77.763l5.598-0.6l49.516,127.599c0.628,0.737,1.27,1.454,1.939,2.139
				c0.062,0.08,0.115,0.143,0.188,0.201c0.423,0.45,0.854,0.876,1.304,1.303c0.316,0.311,0.637,0.608,0.955,0.905
				c0.034,0.041,0.056,0.063,0.094,0.085c0.23,0.208,0.476,0.423,0.706,0.628c21.648,18.891,58.148,17.911,120.476,45.415
				c43.372,19.123,64.499,37.4,66.385,39.073c0.044,0.045,0.08,0.069,0.134,0.101l0.008,0.016c-2.41,11.063-4.063,21-5.18,29.771
				c-0.114,0.936-0.228,1.857-0.334,2.764l-0.004,0.019c-1.959,16.669-1.955,28.984-1.518,36.769
				c0.031,0.635,0.068,1.229,0.102,1.795c0.381,5.438,0.929,8.19,0.929,8.19l48.839,19.387l12.636,5.011l5.258,2.078
				c7.103-5.989,13.852-13.128,19.412-19.57c1.134-1.311,2.207-2.586,3.239-3.83c6.716-8.11,11.026-14.323,11.026-14.323
				s10.028,5.025,29.396,18.388C510.011,401.434,509.396,411.978,509.396,411.978z"/>
			
				<linearGradient id="SVGID_9_" gradientUnits="userSpaceOnUse" x1="19.4941" y1="571.3789" x2="19.4941" y2="313.4902" gradientTransform="matrix(0.968 0.2509 -0.2509 0.968 229.9492 -96.1641)">
				<stop  offset="0" style="stop-color:#5F123E"/>
				<stop  offset="1" style="stop-color:#D2603B"/>
			</linearGradient>
			<path fill-rule="evenodd" clip-rule="evenodd" fill="url(#SVGID_9_)" d="M148.874,206.666c0,0-20.764,85.4-10.043,147.646
				c10.721,62.243,12.255,78.903,4.371,117.291c0,0,10.584-22.35-13.754-70.647c-32.713-64.934-23.59-117.108-0.649-170.936
				c0,0,10.206-2.941,12.634-5.691C146.21,218.904,148.874,206.666,148.874,206.666z"/>
			
				<linearGradient id="SVGID_10_" gradientUnits="userSpaceOnUse" x1="-5.9214" y1="571.3799" x2="-5.9214" y2="196.623" gradientTransform="matrix(0.968 0.2509 -0.2509 0.968 229.9492 -96.1641)">
				<stop  offset="0" style="stop-color:#44032F"/>
				<stop  offset="1" style="stop-color:#AC3B1D"/>
			</linearGradient>
			<path fill-rule="evenodd" clip-rule="evenodd" fill="url(#SVGID_10_)" d="M143.202,471.604l2.645,0.687
				c0,0,5.252-18.2,3.744-54.004c-1.511-35.796-7.973-57.732-5.993-106.018c2.34-57.062,16.245-97.628,22.603-105.635
				L114.995,77.158l-5.602,0.598l43.03,129.829c0,0-20.055,71.127-17.681,113.988C137.119,364.428,153.379,421.442,143.202,471.604z
				"/>
			
				<radialGradient id="SVGID_11_" cx="-47.0557" cy="394.1719" r="125.8319" gradientTransform="matrix(0.8247 0.2138 -0.2462 0.9497 270.1758 -64.2861)" gradientUnits="userSpaceOnUse">
				<stop  offset="0" style="stop-color:#E16419"/>
				<stop  offset="1" style="stop-color:#9D323E"/>
			</radialGradient>
			<path fill-rule="evenodd" clip-rule="evenodd" fill="url(#SVGID_11_)" d="M124.856,128.242c0,0,23.023,68.952,20.837,81.041
				c-2.197,12.084-20.456,70.909-17.283,125.277c3.168,54.378,24.868,80.959,14.792,137.044c0,0,8.695-11.389,1.412-72.622
				c-7.387-62.136-20.538-82.042,10.843-190.61L124.856,128.242z"/>
			
				<linearGradient id="SVGID_12_" gradientUnits="userSpaceOnUse" x1="117.0454" y1="379.3721" x2="117.0454" y2="346.4883" gradientTransform="matrix(0.968 0.2509 -0.2509 0.968 229.9492 -96.1641)">
				<stop  offset="0.0056" style="stop-color:#AE429A"/>
				<stop  offset="1" style="stop-color:#E08368"/>
			</linearGradient>
			<path opacity="0.5" fill-rule="evenodd" clip-rule="evenodd" fill="url(#SVGID_12_)" d="M351.518,324.398
				c-0.114,0.936-0.228,1.857-0.334,2.764c-8.337-3.912-16.93-7.55-25.738-10.814c-99.4-36.947-116.096-40.066-138.768-51.135
				c-22.648-11.087-33.681-22.574-33.681-22.574l0.198-0.765c0,0,15.783,14.681,40.576,24.697
				C230.946,281.604,288.879,295.108,351.518,324.398z"/>
			
				<linearGradient id="SVGID_13_" gradientUnits="userSpaceOnUse" x1="357.1504" y1="442.4404" x2="357.1504" y2="405.3223" gradientTransform="matrix(0.968 0.2509 -0.2509 0.968 229.9492 -96.1641)">
				<stop  offset="0.0056" style="stop-color:#AE429A"/>
				<stop  offset="1" style="stop-color:#E08368"/>
			</linearGradient>
			<path opacity="0.5" fill-rule="evenodd" clip-rule="evenodd" fill="url(#SVGID_13_)" d="M500.665,431.059L500.665,431.059
				c0,0-22.603-25.028-63.828-50.219c1.134-1.311,2.207-2.586,3.239-3.83C460.54,392.313,483.866,408.704,500.665,431.059z"/>
			
				<linearGradient id="SVGID_14_" gradientUnits="userSpaceOnUse" x1="19.5332" y1="395.4082" x2="19.5332" y2="391.9551" gradientTransform="matrix(0.968 0.2509 -0.2509 0.968 229.9492 -96.1641)">
				<stop  offset="0.0056" style="stop-color:#AE429A"/>
				<stop  offset="1" style="stop-color:#E08368"/>
			</linearGradient>
			<path opacity="0.5" fill-rule="evenodd" clip-rule="evenodd" fill="url(#SVGID_14_)" d="M145.468,286.841
				c3.035,2.126,6.091,4.118,9.227,5.958C146.188,288.708,145.468,286.841,145.468,286.841z"/>
			
				<linearGradient id="SVGID_15_" gradientUnits="userSpaceOnUse" x1="128.3442" y1="417.0762" x2="128.3442" y2="395.4258" gradientTransform="matrix(0.968 0.2509 -0.2509 0.968 229.9492 -96.1641)">
				<stop  offset="0.0056" style="stop-color:#AE429A"/>
				<stop  offset="1" style="stop-color:#E08368"/>
			</linearGradient>
			<path opacity="0.5" fill-rule="evenodd" clip-rule="evenodd" fill="url(#SVGID_15_)" d="M349.662,363.949
				c0.031,0.635,0.068,1.229,0.102,1.795c-10.825-5.314-22.05-10.369-33.584-15.011c-79.252-31.879-124.515-36.016-161.429-57.901
				c8.386,4.024,24.342,10.197,54.563,18.864C249.634,323.249,299.772,340.032,349.662,363.949z"/>
			
				<linearGradient id="SVGID_16_" gradientUnits="userSpaceOnUse" x1="337.1504" y1="471.1768" x2="337.1504" y2="431.2852" gradientTransform="matrix(0.968 0.2509 -0.2509 0.968 229.9492 -96.1641)">
				<stop  offset="0.0056" style="stop-color:#AE429A"/>
				<stop  offset="1" style="stop-color:#E08368"/>
			</linearGradient>
			<path opacity="0.5" fill-rule="evenodd" clip-rule="evenodd" fill="url(#SVGID_16_)" d="M486.661,457.114
				c-3.003-2.698-36.937-32.918-87.13-63.793l12.636,5.011C439.021,415.318,464.439,434.801,486.661,457.114z"/>
			
				<linearGradient id="SVGID_17_" gradientUnits="userSpaceOnUse" x1="201.2144" y1="504.7031" x2="201.2144" y2="442.4287" gradientTransform="matrix(0.968 0.2509 -0.2509 0.968 229.9492 -96.1641)">
				<stop  offset="0.0056" style="stop-color:#AE429A"/>
				<stop  offset="1" style="stop-color:#E08368"/>
			</linearGradient>
			<path opacity="0.5" fill-rule="evenodd" clip-rule="evenodd" fill="url(#SVGID_17_)" d="M143.317,338.424
				c0,0,24.329,8.978,69.543,23.069c51.235,15.959,96.58,29.077,154.096,56.925c87.707,42.46,101.87,67.338,101.87,67.338
				l-0.824,1.156c0,0,7.153-14.29-100.687-65.71C259.48,369.779,172.482,355.654,143.317,338.424z"/>
			
				<linearGradient id="SVGID_18_" gradientUnits="userSpaceOnUse" x1="204.083" y1="519.5859" x2="204.083" y2="474.0156" gradientTransform="matrix(0.968 0.2509 -0.2509 0.968 229.9492 -96.1641)">
				<stop  offset="0.0056" style="stop-color:#AE429A"/>
				<stop  offset="1" style="stop-color:#E08368"/>
			</linearGradient>
			<path opacity="0.5" fill-rule="evenodd" clip-rule="evenodd" fill="url(#SVGID_18_)" d="M146.685,371.928
				c0,0,74.789,38.919,159.448,73.023c84.667,34.106,153.33,53.314,153.33,53.314l-1.198,1.496c0,0-66.76-19.453-159.297-56.667
				c-91.93-36.975-153.146-67.841-153.146-67.841L146.685,371.928z"/>
			
				<linearGradient id="SVGID_19_" gradientUnits="userSpaceOnUse" x1="204.4683" y1="544.0039" x2="204.4683" y2="513.376" gradientTransform="matrix(0.968 0.2509 -0.2509 0.968 229.9492 -96.1641)">
				<stop  offset="0.0056" style="stop-color:#AE429A"/>
				<stop  offset="1" style="stop-color:#E08368"/>
			</linearGradient>
			<path opacity="0.5" fill-rule="evenodd" clip-rule="evenodd" fill="url(#SVGID_19_)" d="M149.343,413.276
				c0,0,92.504,27.168,173.199,57.192c80.688,30.026,119.151,47.817,119.151,47.817l-1.931,1.905c0,0-79.277-36.572-162.12-63.845
				c-82.835-27.274-128.14-39.969-128.14-39.969L149.343,413.276z"/>
			
				<linearGradient id="SVGID_20_" gradientUnits="userSpaceOnUse" x1="201.5771" y1="563.5625" x2="201.5771" y2="547.9932" gradientTransform="matrix(0.968 0.2509 -0.2509 0.968 229.9492 -96.1641)">
				<stop  offset="0.0056" style="stop-color:#AE429A"/>
				<stop  offset="1" style="stop-color:#E08368"/>
			</linearGradient>
			<path opacity="0.5" fill-rule="evenodd" clip-rule="evenodd" fill="url(#SVGID_20_)" d="M148.844,453.616
				c0,0,86.911,15.889,155.724,36.212c68.822,20.329,116.706,45.775,116.706,45.775s-55.776-26.852-131.482-47.741
				C214.093,466.977,148.844,453.616,148.844,453.616z"/>
			
				<linearGradient id="SVGID_21_" gradientUnits="userSpaceOnUse" x1="-11.6743" y1="369.75" x2="-11.6743" y2="352.1475" gradientTransform="matrix(0.968 0.2509 -0.2509 0.968 229.9492 -96.1641)">
				<stop  offset="0.0056" style="stop-color:#AE429A"/>
				<stop  offset="1" style="stop-color:#E08368"/>
			</linearGradient>
			<path opacity="0.5" fill-rule="evenodd" clip-rule="evenodd" fill="url(#SVGID_21_)" d="M137.586,243.675
				c0,0-8.217,4.269-18.177,10.784l-0.823,2.475C118.586,256.934,130.815,247.973,137.586,243.675z"/>
			
				<linearGradient id="SVGID_22_" gradientUnits="userSpaceOnUse" x1="-9.9072" y1="407.4883" x2="-9.9072" y2="387.9219" gradientTransform="matrix(0.968 0.2509 -0.2509 0.968 229.9492 -96.1641)">
				<stop  offset="0.0056" style="stop-color:#AE429A"/>
				<stop  offset="1" style="stop-color:#E08368"/>
			</linearGradient>
			<path opacity="0.5" fill-rule="evenodd" clip-rule="evenodd" fill="url(#SVGID_22_)" d="M131.218,278.981
				c0,0-10.395,2.636-21.003,12.195l-0.625,2.411c0,0,10.8-11.176,21.243-11.715L131.218,278.981z"/>
			
				<linearGradient id="SVGID_23_" gradientUnits="userSpaceOnUse" x1="3.9707" y1="461.6299" x2="3.9707" y2="442.4287" gradientTransform="matrix(0.968 0.2509 -0.2509 0.968 229.9492 -96.1641)">
				<stop  offset="0.0056" style="stop-color:#AE429A"/>
				<stop  offset="1" style="stop-color:#E08368"/>
			</linearGradient>
			<path opacity="0.5" fill-rule="evenodd" clip-rule="evenodd" fill="url(#SVGID_23_)" d="M111.371,349.979
				c0,0,9.63-10.774,17.04-15.419l0.208,3.214C128.619,337.773,119.802,339.628,111.371,349.979z"/>
			
				<linearGradient id="SVGID_24_" gradientUnits="userSpaceOnUse" x1="23.1709" y1="496.8916" x2="23.1709" y2="480.3926" gradientTransform="matrix(0.968 0.2509 -0.2509 0.968 229.9492 -96.1641)">
				<stop  offset="0.0056" style="stop-color:#AE429A"/>
				<stop  offset="1" style="stop-color:#E08368"/>
			</linearGradient>
			<path opacity="0.5" fill-rule="evenodd" clip-rule="evenodd" fill="url(#SVGID_24_)" d="M134.402,375.331
				c0,0-5.497,5.966-10.251,14.387c0,0,7.527-9.072,10.75-12.187L134.402,375.331z"/>
			
				<linearGradient id="SVGID_25_" gradientUnits="userSpaceOnUse" x1="41.1958" y1="519.5762" x2="41.1958" y2="513.377" gradientTransform="matrix(0.968 0.2509 -0.2509 0.968 229.9492 -96.1641)">
				<stop  offset="0.0056" style="stop-color:#AE429A"/>
				<stop  offset="1" style="stop-color:#E08368"/>
			</linearGradient>
			<polygon opacity="0.5" fill-rule="evenodd" clip-rule="evenodd" fill="url(#SVGID_25_)" points="136.431,416.335 
				142.664,411.546 143.275,414.906 			"/>
			<path opacity="0.6" fill-rule="evenodd" clip-rule="evenodd" fill="#704786" d="M145.693,209.282l9.763-0.911L111.233,77.561
				l-1.84,0.195C109.393,77.756,146.407,188.589,145.693,209.282z"/>
			
				<radialGradient id="SVGID_26_" cx="317.7568" cy="397.252" r="19.2453" gradientTransform="matrix(0.8247 0.2138 -0.2462 0.9497 270.1758 -64.2861)" gradientUnits="userSpaceOnUse">
				<stop  offset="0" style="stop-color:#E16419"/>
				<stop  offset="1" style="stop-color:#C8513E"/>
			</radialGradient>
			<path fill-rule="evenodd" clip-rule="evenodd" fill="url(#SVGID_26_)" d="M451.101,362.692l-8.996-3.69
				c0,0-6.943,22.108-24.68,41.419l2.327,0.604C419.752,401.025,439.876,383.501,451.101,362.692z"/>
			
				<linearGradient id="SVGID_27_" gradientUnits="userSpaceOnUse" x1="207.4351" y1="519.7324" x2="207.4351" y2="479.0098" gradientTransform="matrix(0.968 0.2509 -0.2509 0.968 229.9492 -96.1641)">
				<stop  offset="0" style="stop-color:#000000"/>
				<stop  offset="1" style="stop-color:#D7883D"/>
			</linearGradient>
			<path opacity="0.5" fill="url(#SVGID_27_)" d="M152.679,378.64c0,0,73.383,39.075,165.717,75.019
				c92.327,35.941,139.869,46.104,139.869,46.104s-35.304-7.035-142.268-49.674C209.04,407.452,152.679,378.64,152.679,378.64z"/>
			
				<linearGradient id="SVGID_28_" gradientUnits="userSpaceOnUse" x1="204.0317" y1="503.377" x2="204.0317" y2="443.7764" gradientTransform="matrix(0.968 0.2509 -0.2509 0.968 229.9492 -96.1641)">
				<stop  offset="0" style="stop-color:#000000"/>
				<stop  offset="1" style="stop-color:#D7883D"/>
			</linearGradient>
			<path opacity="0.5" fill="url(#SVGID_28_)" d="M148.434,341.143c0,0,3.984,4.668,78.666,28.922
				c87.627,28.458,129.046,45.517,164.65,64.096c37.62,19.631,64.074,37.59,77.077,51.596c0,0-24.776-34.517-137.793-80.858
				C225.059,361.441,201.725,365.079,148.434,341.143z"/>
			
				<linearGradient id="SVGID_29_" gradientUnits="userSpaceOnUse" x1="128.7563" y1="419.4385" x2="128.7563" y2="395.4258" gradientTransform="matrix(0.968 0.2509 -0.2509 0.968 229.9492 -96.1641)">
				<stop  offset="0" style="stop-color:#000000"/>
				<stop  offset="1" style="stop-color:#D7883D"/>
			</linearGradient>
			<path opacity="0.5" fill="url(#SVGID_29_)" d="M154.75,292.832c0,0,10.098,7.812,41.061,18.943
				c30.97,11.136,55.482,19.614,93.012,31.4c37.523,11.787,61.146,25.062,61.146,25.062l-1.291-3.021
				c0,0-48.043-23.409-109.739-41.369C170.433,303.904,154.75,292.832,154.75,292.832z"/>
			
				<linearGradient id="SVGID_30_" gradientUnits="userSpaceOnUse" x1="335.6289" y1="471.1768" x2="335.6289" y2="430.9023" gradientTransform="matrix(0.968 0.2509 -0.2509 0.968 229.9492 -96.1641)">
				<stop  offset="0" style="stop-color:#000000"/>
				<stop  offset="1" style="stop-color:#D7883D"/>
			</linearGradient>
			<path opacity="0.5" fill="url(#SVGID_30_)" d="M396.682,392.187c0,0,63.748,43.639,89.979,64.928
				c0,0-37.449-33.499-85.974-63.343L396.682,392.187z"/>
			
				<linearGradient id="SVGID_31_" gradientUnits="userSpaceOnUse" x1="206.3218" y1="543.2656" x2="206.3218" y2="516.5625" gradientTransform="matrix(0.968 0.2509 -0.2509 0.968 229.9492 -96.1641)">
				<stop  offset="0" style="stop-color:#000000"/>
				<stop  offset="1" style="stop-color:#D7883D"/>
			</linearGradient>
			<path opacity="0.2" fill="url(#SVGID_31_)" d="M157.548,418.694c0,0,115.58,36.374,178.656,60.081
				c63.087,23.715,99.674,39.646,99.674,39.646S339.329,470.676,157.548,418.694z"/>
			
				<linearGradient id="SVGID_32_" gradientUnits="userSpaceOnUse" x1="126.3042" y1="379.3721" x2="126.3042" y2="355.3613" gradientTransform="matrix(0.968 0.2509 -0.2509 0.968 229.9492 -96.1641)">
				<stop  offset="0" style="stop-color:#000000"/>
				<stop  offset="1" style="stop-color:#D7883D"/>
			</linearGradient>
			<path opacity="0.5" fill="url(#SVGID_32_)" d="M168.893,255.109c0,0,12.371,9.775,39.774,20.604
				c27.404,10.829,118,41.793,142.517,51.448c0,0-41.445-17.971-100.247-37.817C192.135,269.496,190.702,267.833,168.893,255.109z"
				/>
			
				<linearGradient id="SVGID_33_" gradientUnits="userSpaceOnUse" x1="357.8418" y1="442.4404" x2="357.8418" y2="410.5264" gradientTransform="matrix(0.968 0.2509 -0.2509 0.968 229.9492 -96.1641)">
				<stop  offset="0" style="stop-color:#000000"/>
				<stop  offset="1" style="stop-color:#D7883D"/>
			</linearGradient>
			<path opacity="0.5" fill="url(#SVGID_33_)" d="M438.004,381.849c0,0,45.864,30.613,62.661,49.21
				C500.665,431.059,478.018,404.638,438.004,381.849z"/>
			<path fill="#6A171D" d="M205.099,313.368c0,0,35.852,9.855,70.284,20.954c34.437,11.097,64.627,26.793,64.627,26.793
				s-27.946-12.94-62.846-24.985C242.262,324.073,205.099,313.368,205.099,313.368z"/>
			<path fill="#6A171D" d="M197.516,358.31l39.56,11.429l11.853,2.482l37.311,12.136l13.594,6.513l47.234,20.99
				C347.067,411.859,271.182,380.059,197.516,358.31z"/>
			<path fill="#6A171D" d="M180.723,261.432l9.798,4.504l15.658,3.082l3.977,2.007l16.54,7.268l2.544,2.343l71.945,26.625
				C301.184,307.261,193.635,272.646,180.723,261.432z"/>
			<path fill="#5E0B1D" d="M158.988,381.704l15.732,5.205l27.162,12.179l9.757,2.528c0,0,50.627,25.761,77.026,37.436
				C288.665,439.052,175.305,391.943,158.988,381.704z"/>
			<path fill="#4D0B1D" d="M346.643,479.548l14.925,8.881c0,0,19.268,9.351,34.979,13.74c15.717,4.4,17.336,4.104,17.336,4.104
				L346.643,479.548z"/>
			
				<radialGradient id="SVGID_34_" cx="289.1738" cy="523.0859" r="35.401" gradientTransform="matrix(0.8247 0.2138 -0.2462 0.9497 270.1758 -64.2861)" gradientUnits="userSpaceOnUse">
				<stop  offset="0" style="stop-color:#D7883D"/>
				<stop  offset="1" style="stop-color:#000000"/>
			</radialGradient>
			<path opacity="0.2" fill="url(#SVGID_34_)" d="M347.636,479.806l-7.25-1.881l21.354,12.651c0,0,20.875,10.905,35.646,14.415
				c14.77,3.5,22.476,3.796,22.476,3.796l-4.753-2.101c0,0-7.776,0.21-31.118-8.279
				C360.646,489.919,347.636,479.806,347.636,479.806z"/>
			
				<linearGradient id="SVGID_35_" gradientUnits="userSpaceOnUse" x1="14.3193" y1="420.415" x2="160.1768" y2="420.415" gradientTransform="matrix(0.968 0.2509 -0.2509 0.968 229.9492 -96.1641)">
				<stop  offset="0" style="stop-color:#D7883D"/>
				<stop  offset="1" style="stop-color:#000000"/>
			</linearGradient>
			<path opacity="0.2" fill="url(#SVGID_35_)" d="M145.468,286.841c0,0-5.165,34.792-2.151,51.583c0,0,45.197,17.919,100.846,32.798
				l-9.052-4.376l12.557-24.116l33.197,3.055c0,0-36.276-10.958-54.47-15.675l21.788-0.075l-10.934-7.449
				c0,0-19.673-1.896-51.112-15.837C154.695,292.799,145.468,286.841,145.468,286.841z"/>
			<path opacity="0.2" fill="#4D1F1D" d="M277.737,387.007l-1.99,18.377c0,0,28.598,15.439,28.523,15.107
				c-0.065-0.33-46.545-19.778-46.545-19.778l-3.405,6.84l-3.523,13.593c0,0,44.469,20.509,83.947,35.016
				c39.478,14.507,68.89,24.624,68.89,24.624l2.897-11.18l-22.023-7.506l35.847,11.088l9.301-9.458c0,0-30.642-18.969-69.1-37.85
				l46.051,16.266l-1.481-2.417c0,0-47.251-26.398-98.304-43.861L277.737,387.007z"/>
			<path opacity="0.2" fill="#4D1F1D" d="M207.746,227.509c0,0-26.536,40.617-32.869,92.899
				c-9.082,74.924,40.272,112.419,137.203,148.449c96.923,36.034,167.75-26.504,186.871-72.929c0,0,9.464,7.22,10.445,16.049
				c0,0-42.174,101.369-97.542,129.262L145.847,472.29c0,0,9.307-58.331-0.395-100.682c-9.708-42.336,1.71-130.877,20.748-164.975
				C166.2,206.633,176.129,218.377,207.746,227.509z"/>
			<path opacity="0.2" fill="#4D1F1D" d="M273.815,298.205l7.392,5.633l-6.051-1.569l-13.877,18.16l10.48,3.943l-11.058-1.717
				l29.87,16.561l51.414,21.11l7.678,3.623c0,0-0.288-23.807,1.521-36.787C351.184,327.162,301.897,305.5,273.815,298.205z"/>
			<path opacity="0.2" fill="#5C1838" d="M178.832,391.939l-2.311,31.672c0,0,93.417,28.806,141.87,46.884l7.285-14.018l7.165-1.019
				C332.842,455.459,248.547,424.853,178.832,391.939z"/>
			<path fill="#6A171D" d="M438.004,381.849l-4.797-1.858l7.701-1.804l27.962,24.098C468.87,402.284,447.65,386.511,438.004,381.849
				z"/>
			
				<radialGradient id="SVGID_36_" cx="85.228" cy="314.1309" r="84.7993" gradientTransform="matrix(0.8247 0.2138 -0.2462 0.9497 270.1758 -64.2861)" gradientUnits="userSpaceOnUse">
				<stop  offset="0" style="stop-color:#E16419"/>
				<stop  offset="1" style="stop-color:#E0543E"/>
			</radialGradient>
			<path fill-rule="evenodd" clip-rule="evenodd" fill="url(#SVGID_36_)" d="M356.556,294.511
				c-31.672-26.979-115.61-54.527-115.61-54.527l-47.651-15.25c-11.483-4.848-19.419-10.967-23.6-14.711
				c21.648,18.891,58.148,17.911,120.476,45.415C333.543,274.561,354.67,292.838,356.556,294.511z"/>
			<path opacity="0.6" fill="#A295A0" d="M356.556,294.511c0,0-5.57,20.321-5.577,21.512c0.005,1.19-3.024,6.726-3.024,6.726
				l-13.657-2.56l15.325,6.454c0,0-0.794,27.993-4.593,35.121l-17.709-6.818l19.68,9.378l2.02,7.573l-12.846-4.324l15.727,6.846
				l-1.265-1.234C350.636,373.184,346.559,338.968,356.556,294.511z"/>
			
				<linearGradient id="SVGID_37_" gradientUnits="userSpaceOnUse" x1="114.2461" y1="365.582" x2="114.2461" y2="320.293" gradientTransform="matrix(0.968 0.2509 -0.2509 0.968 229.9492 -96.1641)">
				<stop  offset="0" style="stop-color:#000000"/>
				<stop  offset="1" style="stop-color:#D7883D"/>
			</linearGradient>
			<path opacity="0.2" fill="url(#SVGID_37_)" d="M219.964,233.269l8.326,6.322l-13.132,34.967l50.564,16.207l5.542-21.375
				l16.552,0.557l-16.251-6.918l24.323-2.265l2.586-1.555C298.475,259.209,258.229,238.706,219.964,233.269z"/>
			<path fill="#E55E4F" d="M196.849,311.23l3.123,2.194l40.663,14.071l5.699,9.67l-0.301-8.155l29.527,6.564
				C275.561,335.575,212.033,315.44,196.849,311.23z"/>
			
				<linearGradient id="SVGID_38_" gradientUnits="userSpaceOnUse" x1="120.6157" y1="415.3633" x2="120.6157" y2="404.7568" gradientTransform="matrix(0.968 0.2509 -0.2509 0.968 229.9492 -96.1641)">
				<stop  offset="0" style="stop-color:#5F123E"/>
				<stop  offset="1" style="stop-color:#801E1D"/>
			</linearGradient>
			<polygon fill-rule="evenodd" clip-rule="evenodd" fill="url(#SVGID_38_)" points="246.334,337.166 243.283,328.184 
				243.438,325.458 240.635,327.496 			"/>
			<path fill="#E5774F" d="M220.421,365.828c0,0,38.046,12.161,51.375,17.024c0,0-8.867-1.229-25.78-6.684
				C229.101,370.716,220.421,365.828,220.421,365.828z"/>
			<path fill="#E5774F" d="M233.767,284.326c0,0,5.901,2.875,12.491,5.223c6.601,2.352,12.574,3.553,12.574,3.553
				S242.931,287.653,233.767,284.326z"/>
			<path fill="#C75E4F" d="M205.861,403.967c0,0,17.095,9.554,23.092,12.014c9.003,3.697,18.777,5.772,18.777,5.772
				S218.779,411.061,205.861,403.967z"/>
			<path opacity="0.6" fill="#A295A0" d="M166.2,206.633l7.019,6.343c0,0-29.392,58.506-27.701,116.96
				c1.706,58.456,12.825,91.347,0.329,142.354c0,0,5-30.461,0.341-58.24c-4.662-27.774-10.991-101.857-0.89-149.16
				C155.406,217.595,166.2,206.633,166.2,206.633z"/>
			<path fill="#FF7A2F" d="M128.136,328.158l5.097,1.32c0,0,4.051,26.479,6.782,37.034c0,0-13.73-46.509,5.869-122.185
				c0,0-9.756,33.813-13.15,67.597l-4.566,1.717C128.167,313.642,128.038,325.332,128.136,328.158z"/>
			<path opacity="0.2" fill="#5C1838" d="M128.798,230.02l4.579-0.123c0,0-15.968,30.807-18.505,78.408
				c-2.536,47.608,12.215,84.734,12.215,84.734s-24.006-49.071-18.33-89.769C114.436,262.573,128.798,230.02,128.798,230.02z"/>
			<path opacity="0.2" fill="#5C1838" d="M507.03,406.512l-9.532,20.275l-2.519-1.758l2.257,2.619l-15.188,24.745l-3.285-1.891
				l2.307,4.788l-16.721,24.121l-4.322-2.721l3.45,6.085c0,0-24.36,37.384-40.748,47.214c0,0,48.024-26.656,86.667-118.013
				L507.03,406.512z"/>
			<path opacity="0.2" fill="#4D1F1D" d="M388.842,430.768l-17.652-10.288l20.149,10.258l13.157-21.843l-3.955-3.791l10.609,4.144
				l4.928-3.639l3.376,0.216l34.51,24.731l-6.12-1.587l12,11.344l-12.934,21.118l3.59,5.951
				C450.5,467.382,419.608,447.346,388.842,430.768z"/>
			
				<linearGradient id="SVGID_39_" gradientUnits="userSpaceOnUse" x1="172.5176" y1="440.9238" x2="172.5176" y2="424.7705" gradientTransform="matrix(0.968 0.2509 -0.2509 0.968 229.9492 -96.1641)">
				<stop  offset="0" style="stop-color:#6A1A1D"/>
				<stop  offset="1" style="stop-color:#5F123E"/>
			</linearGradient>
			<polygon fill-rule="evenodd" clip-rule="evenodd" fill="url(#SVGID_39_)" points="281.345,372.192 286.212,357.22 
				295.183,360.66 289.776,374.83 			"/>
			
				<linearGradient id="SVGID_40_" gradientUnits="userSpaceOnUse" x1="142.0776" y1="438.9678" x2="142.0776" y2="423.3535" gradientTransform="matrix(0.968 0.2509 -0.2509 0.968 229.9492 -96.1641)">
				<stop  offset="0" style="stop-color:#6A1A1D"/>
				<stop  offset="1" style="stop-color:#5F123E"/>
			</linearGradient>
			<polygon fill-rule="evenodd" clip-rule="evenodd" fill="url(#SVGID_40_)" points="252.897,362.807 256.708,348.109 
				265.708,350.877 261.335,365.438 			"/>
			
				<linearGradient id="SVGID_41_" gradientUnits="userSpaceOnUse" x1="202.4961" y1="444.7314" x2="202.4961" y2="428.5791" gradientTransform="matrix(0.968 0.2509 -0.2509 0.968 229.9492 -96.1641)">
				<stop  offset="0" style="stop-color:#6A1A1D"/>
				<stop  offset="1" style="stop-color:#5F123E"/>
			</linearGradient>
			<polygon fill-rule="evenodd" clip-rule="evenodd" fill="url(#SVGID_41_)" points="309.41,383.402 314.276,368.428 
				323.245,371.867 317.844,386.039 			"/>
			
				<linearGradient id="SVGID_42_" gradientUnits="userSpaceOnUse" x1="232.1685" y1="450.4004" x2="232.1685" y2="432.8555" gradientTransform="matrix(0.968 0.2509 -0.2509 0.968 229.9492 -96.1641)">
				<stop  offset="0" style="stop-color:#6A1A1D"/>
				<stop  offset="1" style="stop-color:#5F123E"/>
			</linearGradient>
			<polygon fill-rule="evenodd" clip-rule="evenodd" fill="url(#SVGID_42_)" points="336.106,394.636 343.116,380.32 
				351.664,384.514 343.795,398.621 			"/>
			<polygon fill-rule="evenodd" clip-rule="evenodd" fill="#481013" points="256.352,349.479 260.716,351.4 257.377,364.281 
				252.897,362.807 			"/>
			<polygon fill-rule="evenodd" clip-rule="evenodd" fill="#481013" points="285.548,359.248 290.916,361.156 286.952,373.946 
				281.345,372.192 			"/>
			<polygon fill-rule="evenodd" clip-rule="evenodd" fill="#481013" points="313.473,370.899 319.985,373.314 315.896,385.424 
				309.41,383.402 			"/>
			<polygon fill-rule="evenodd" clip-rule="evenodd" fill="#481013" points="342.131,382.318 347.003,385.254 341.045,397.197 
				336.106,394.636 			"/>
			<path fill-rule="evenodd" clip-rule="evenodd" fill="#F48D19" d="M451.101,362.692l28.07,17.474c0,0,29.244,22.982,30.226,31.812
				C509.396,411.978,511.549,394.476,451.101,362.692z"/>
			
				<linearGradient id="SVGID_43_" gradientUnits="userSpaceOnUse" x1="26.8447" y1="340.0117" x2="36.8496" y2="340.0117" gradientTransform="matrix(0.968 0.2509 -0.2509 0.968 229.9492 -96.1641)">
				<stop  offset="0" style="stop-color:#6A1A1D"/>
				<stop  offset="1" style="stop-color:#5F123E"/>
			</linearGradient>
			<path fill-rule="evenodd" clip-rule="evenodd" fill="url(#SVGID_43_)" d="M180.309,242.217c-1.063,4.104-3.567,7.104-5.959,7.386
				c-0.005,0.019-0.005,0.019-0.016,0.017c-0.372,0.047-0.727,0.02-1.092-0.075c-2.669-0.692-3.848-5.09-2.618-9.838
				c0.694-2.676,2.011-4.906,3.513-6.188c1.141-1.003,2.395-1.449,3.556-1.148C180.373,233.066,181.536,237.484,180.309,242.217z"/>
			<path fill-rule="evenodd" clip-rule="evenodd" fill="#481013" d="M177.831,243.443c-0.692,2.675-1.996,4.876-3.481,6.159
				c-0.005,0.019-0.005,0.019-0.016,0.017c-0.372,0.047-0.727,0.02-1.092-0.075c-2.669-0.692-3.848-5.09-2.618-9.838
				c0.694-2.676,2.011-4.906,3.513-6.188c0.366-0.034,0.731-0.007,1.077,0.084C177.888,234.293,179.063,238.693,177.831,243.443z"/>
		</g>
		<path fill-rule="evenodd" clip-rule="evenodd" fill="#661B3E" d="M115.576,97.931c0,0-4.14,12.308-0.54,16.646
			c3.596,4.347,7.765-11.643,7.891-17.355l-0.674-1.344c0,0-2.272,17.301-6.004,17.129c-3.735-0.17-0.054-13.042-0.054-13.042
			L115.576,97.931z"/>
		<path fill-rule="evenodd" clip-rule="evenodd" fill="#661B3E" d="M118.529,107.584c0,0-0.424,6.241,0.754,8.094
			c0,0,2.285-0.809,1.401,2.063c-0.884,2.879-2.144,7.877-1.339,9.154c0.8,1.271,3.999-3.595,3.999-3.595
			s-11.098,43.484-7.744,48.41c3.838,5.649,18.277-40.156,18.612-45.964c0.334-5.805-2.004-5.051-2.004-5.051l1.235,2.998
			c0,0-12.406,43.167-16.221,42.804c-3.817-0.37,6.459-42.095,6.459-42.095l-1.207-3.392c0,0-1.327,4.897-2.278,3.832
			c-0.953-1.065,6.593-16.389,6.849-17.212c0,0-0.328-1.833-0.822-2.075l-4.256,11.225c0,0,0.427-1.927-1.19-3.784
			C119.164,111.141,118.529,107.584,118.529,107.584z"/>
	</g>
</g>
</svg>
