<?xml version="1.0" encoding="utf-8"?>
<!-- Generator: Adobe Illustrator 16.0.3, SVG Export Plug-In . SVG Version: 6.00 Build 0)  -->
<!DOCTYPE svg PUBLIC "-//W3C//DTD SVG 1.1//EN" "http://www.w3.org/Graphics/SVG/1.1/DTD/svg11.dtd">
<svg version="1.1" id="Layer_1" xmlns="http://www.w3.org/2000/svg" xmlns:xlink="http://www.w3.org/1999/xlink" x="0px" y="0px"
	 width="612px" height="568px" viewBox="0 0 612 568" enable-background="new 0 0 612 568" xml:space="preserve">
<g>
	<g>
	</g>
	
		<radialGradient id="SVGID_1_" cx="204.5649" cy="-15.9932" r="296.3921" gradientTransform="matrix(0.8111 -0.5848 0.5848 0.8111 6.2686 413.4429)" gradientUnits="userSpaceOnUse">
		<stop  offset="0.0056" style="stop-color:#4FB1FF"/>
		<stop  offset="0.2141" style="stop-color:#4EAEFC"/>
		<stop  offset="0.367" style="stop-color:#49A6F3"/>
		<stop  offset="0.5022" style="stop-color:#4298E3"/>
		<stop  offset="0.6271" style="stop-color:#3883CC"/>
		<stop  offset="0.745" style="stop-color:#2B69AF"/>
		<stop  offset="0.8576" style="stop-color:#1A498B"/>
		<stop  offset="0.9641" style="stop-color:#072462"/>
		<stop  offset="1" style="stop-color:#001652"/>
	</radialGradient>
	<path fill-rule="evenodd" clip-rule="evenodd" fill="url(#SVGID_1_)" d="M455.658,176.116c1.093,1.521,2.161,3.04,3.188,4.572
		c10.454,15.395,18.239,31.849,23.478,48.792c14.754,47.759,9.339,99.473-14.314,142.875c-12.795,23.493-30.928,44.591-54.094,61.29
		c-24.564,17.716-52.045,28.508-80.066,32.752c-43.2,6.592-87.776-2.396-125.123-25.571c-3.188-1.965-6.335-4.043-9.408-6.235
		c-16.175-11.423-30.738-25.714-42.975-42.67c-56.056-77.758-42.862-184.399,27.739-246.392c3.48-3.096,7.099-6.048,10.908-8.871
		c0,0,0.027-0.014,0.046-0.029c0.999-0.802,2.031-1.548,3.063-2.293c11.214-8.083,23.038-14.72,35.259-19.967
		c7.618-3.31,15.402-6.033,23.283-8.198c39.239-10.865,80.821-8.313,118.088,6.594C406.123,125.319,434.431,146.663,455.658,176.116
		z"/>
	
		<linearGradient id="SVGID_2_" gradientUnits="userSpaceOnUse" x1="317.8115" y1="377.0303" x2="317.8115" y2="16.2446" gradientTransform="matrix(0.9688 -0.2477 0.2477 0.9688 -24.8721 168.9692)">
		<stop  offset="0" style="stop-color:#E8DDFF"/>
		<stop  offset="1" style="stop-color:#AA8AD8"/>
	</linearGradient>
	<path opacity="0.3" fill-rule="evenodd" clip-rule="evenodd" fill="url(#SVGID_2_)" d="M374.732,112.764
		c-0.482-0.029-0.977-0.058-1.444-0.072c-2.513-0.028-5.479,0.158-7.956,0.674c-2.184,0.473-4.049,1.62-5.982,2.163
		c-3.374,0.976-7.067,1.334-10.612,1.521c-4.337,0.201-8.265,1.462-12.564,1.776c-11.265,0.774-22.116-4.743-32.492-8.342
		c-2.518-0.875-4.156-1.346-6.493-2.507c-1.587-0.774-3.147-0.947-4.868-1.162c-3.749-0.516-8.011-0.788-11.486,1.104
		c-2.087,1.132-2.934,3.369-4.17,5.433c-1.717,2.765-2.337,3.783,0.685,4.987c5.234,2.093,11.875,3.44,11.394,10.649
		c-0.283,4.586-0.227,9.044-1.167,13.546c-1.056,4.973-0.746,11.165-4.313,15.307c-2.661,3.068-7.441,2.911-11.176,3.914
		c-3.3,0.889-6.956,1.375-9.935,3.139c-2.347,1.391-3.62,3.498-5.559,5.346c-2.952,2.867-7.048,4.888-10.857,2.852
		c-1.466-0.759-1.347-1.375-3.193-1.391c-1.684-0.014-3.874,1.076-5.377,1.692c-4.577,1.964-8.543,5.347-13.092,7.224
		c-3.068,1.233-6.571,1.907-9.747,2.768c-2.11,0.543-4.188,1.977-6.164,2.149c-1.152,0.085-2.647-0.215-3.883-0.172
		c-3.684,0.058-5.951,0.644-8.94,2.924c-5.961,4.443-12.62,12.098-16.05,18.863c-2.24,4.415-0.796,6.408,2.786,8.916
		c3.055,2.18,8.191,3.985,9.719,7.583c1.291,3.024,0.722,6.607,1.61,9.689c0.87,3.067,1.643,5.948,4.518,7.64
		c4.822,2.853,10.958,3.297,16.044,5.546c5.72,2.552,12.421,8.987,10.08,15.638c-1.175,3.269-0.824,6.464-0.754,9.905
		c0.073,2.335,0.754,5.517-1.949,6.664c-1.8,0.76-4.517-0.358-6.358,0.244c-2.115,0.673-3.138,2.408-3.911,4.357
		c-1.189,2.968-3.24,6.479-3.601,9.689c-0.671,5.891,4.934,13.173,9.834,15.811c5.877,3.21,11.578,6.764,18.502,5.574
		c4.41-0.758,8.473-3.64,12.98-1.447c2.754,1.376,3.961,3.813,6.127,5.748c2.166,1.936,4.563,3.196,6.535,5.461
		c1.837,2.106,3.748,3.955,5.952,5.719c3.035,2.409,6.146,5.204,9.482,7.21c3.938,2.379,8.445,2.881,12.675,4.328
		c3.786,1.248,7.094,0.859,10.963,1.635c4.239,0.86,8.788,0.76,12.644,2.81c2.925,1.548,5.678,3.439,8.687,4.873
		c8.427,3.854,12.009-5.29,14.421-11.739c1.684-4.473,3.28-8.542,3.775-13.271c0.37-3.685,0.694-7.556,1.801-11.124
		c1.096-3.483,2.197-7.268,3.813-10.535c0.621-1.29,1.574-2.48,1.74-4.014c0.264-2.393-0.662-4.758-2.101-6.851
		c-3.068-4.472-6.336-10.75-10.44-14.262c-4.452-3.899-9.326,0.314-13.064,2.895c-2.139,1.462-5.031,3.024-7.483,1.793
		c-2.3-1.147-3.411-3.44-6.034-4.473c-2.81-1.09-5.345-0.444-7.405,1.877c-0.865,0.976-1.24,2.049-2.221,2.982
		c-0.958,0.889-2.258,1.018-2.471,2.522c-0.509,3.125,4.299,3.454,6.483,4.1c3.892,1.145,4.516,1.576,5.182,5.589
		c0.357,2.308,0.756,6.05-2.119,6.752c-2.036,0.473-5.692-2.149-7.589-2.666c-8.08-2.194-16.263-4.387-16.304-14.521
		c-0.033-3.167,1.489-3.998,2.434-6.665c0.99-2.738-0.083-6.091,1.069-8.958c1.555-3.755,6.479-5.962,9.658-8.299
		c3.781-2.752,8.395-5.389,12.657-7.325c3.055-1.391,5.313-1.404,8.45-1.676c3.12-0.287,4.9-2.996,7.654-4.171
		c5.086-2.136,9.293-0.3,14.347,0.731c4.934,1.001,7.432,3.397,11.32,6.65c7.779,6.593,15.586,14.018,21.542,22.331
		c5.151,7.268,9.973,15.107,16.596,20.999c3.221,2.852,6.474,5.146,10.056,7.396c1.152,0.702,1.31,0.1,2.027,1.648
		c0.438,0.917,0.926,4.213,0.926,5.288c0.041,2.81-1.677,6.394-2.208,9.216c-0.496,2.782-1.851,5.146-2.804,7.784
		c-1.366,3.783-2.943,7.296-4.406,11.008c-2.393,5.977,1.934,11.824,0.689,18.217c-1.791,9.088-7.469,14.636-12.486,22.089
		c-4.012,5.977-8.413,11.48-11.666,17.816c-2.051,3.969-2.98,7.94-5.434,11.781c-3.1,4.845-7.261,8.758-10.895,13.145
		c-2.877,3.454-6.196,6.578-10.148,8.814c-2.572,1.433-4.863,1.978-7.395,3.841c-4.467,3.212-8.937,6.551-13.481,9.719
		c-2.435,1.677-5.321,1.992-8.168,2.78c-2.874,0.804-5.877,1.361-8.793,2.164c-7.617,2.036-16.938,7.054-24.883,4.545
		c-2.338-0.731-4.535-2.036-6.914-2.609c-1.996-0.444-3.879-0.071-5.888-0.2c-1.703-0.115-3.082-0.286-4.733-0.173
		c-2.652,0.201-4.438-0.357-7.077-0.874c-2.143-0.415-4.35-0.388-6.529-0.173c-1.102,0.116-2.916,0.848-3.976,0.617
		c-1.393-0.301-1.277-1.089-2.235-2.035c-1.046-1.09-2.295-1.648-3.429-2.638c-3-2.666-7.553-5.217-12.061-4.815
		c-2.435,0.243-3.771,0.889-6.271,0.631c-4.637-0.431-6.821-1.075-10.737-3.942c0.028,0.13,0.051,0.272,0.079,0.373
		c37.347,23.176,81.922,32.163,125.123,25.571c0.732-1.22,1.444-2.423,2.096-3.612c1.99-3.713,4.781-5.648,8.132-8.014
		c4.396-3.167,8.293-6.592,12.046-10.534c3.355-3.454,6.956-6.121,10.903-8.93c4.896-3.455,8.793-7.927,13.74-11.396
		c4.692-3.281,9.922-4.973,15.133-7.208c7.474-3.197,12.999-9.948,18.428-15.854c2.458-2.651,3.985-6.164,6.585-8.686
		c1.583-1.534,3.37-2.666,4.888-4.345c3.614-3.869,9.056-8.298,13.804-10.792c3.268-1.691,6.105-0.258,9.359-0.388
		c3.438-0.129,5.645-3.612,8.426-5.145c3.236-1.792,7.405-1.004,10.621,0.859c23.653-43.401,29.068-95.116,14.314-142.875
		c-4.152,3.024-7.941,10.907-10.492,12.428c-1.549,0.93-3.392,0.988-4.988,2.135c-1.514,1.09-2.295,2.393-3.518,3.74
		c-1.836,1.978-4.191,4.401-6.825,3.198c-2.606-1.233-3.37-6.595-6.909-4.803c-1.754,0.917-2.343,3.183-4.379,4.144
		c-1.726,0.788-3.072,1.375-4.623,2.536c-2.629,1.936-4.262,4.028-6.533,6.25c-1.148,1.132-2.365,1.362-3.8,1.935
		c-1.116,0.459-2.981,1.992-4.063,2.122c-3.948,0.544-3.555-4.186-3.66-6.737c-0.038-1.304,0.105-2.981-0.107-4.285
		c-0.268-1.533-0.939-1.936-1.541-3.255c-1.619-3.367-1.105-7.08-0.268-10.635c1.254-5.188,2.451-10.75,2.188-16.082
		c-0.13-2.409,0.185-3.999-0.855-6.134c-0.765-1.605-1.495-3.183-2.208-4.817c-0.889-1.978-1.379-3.683-1.967-5.747
		c-0.783-2.738-2.411-5.059-3.286-7.769c-0.745-2.293-1.431-7.61-0.444-9.919c0.482-1.075,1.615-1.706,1.995-2.939
		c0.384-1.204-0.116-2.178,0.602-3.309c1.62-2.595,7.353-3.699,9.991-4.444c4.017-1.133,9.029-1.361,13.143-0.774
		c4.513,0.674,7.998,2.222,12.199,3.612c1.477,0.501,4.614,1.189,6.872,0.759c-1.027-1.533-2.096-3.052-3.188-4.572
		C434.431,146.663,406.123,125.319,374.732,112.764z M347.576,237.821c0.375,1.261-1.277,3.297-2.324,3.813
		c-2.114,1.104-5.201-0.043-7.496-0.187c-2.473-0.186-4.67-1.002-6.405-2.866l2.101-0.072c-2.781-0.931-6.381-1.175-6.543-4.973
		c-0.074-2.136,1.338-3.196,3.244-3.599c3.096-0.629,6.594-1.432,9.732-0.543c2.156,0.602,3.289,2.378,4.529,4.142
		C345.233,234.668,347.131,236.46,347.576,237.821z M318.027,130.279c0.311,2.237-0.579,4.729-1.754,6.564
		c-0.87,1.405-2.818,3.484-4.174,4.472c-3.217,2.365-8.025,1.95-11.704,1.763c-2.125-0.072-7.332-1.089-2.111-2.781
		c-1.347-0.858-2.647-1.432-3.443-2.737c-0.537-0.875-0.944-2.121-1.319-3.067c-0.953-2.264-0.935-4.7-1.703-6.979
		c-0.587-1.736-1.333-3.87-2.309-5.447c-0.879-1.434-2.142-2.322-1.583-4.186c0.329-1.16,0.981-1.59,2.087-1.662
		c1.153-0.102,2.8,0.745,3.975,1.002c1.346,0.316,2.643,0.632,3.97,1.019c3.842,1.032,7.146,3.526,10.872,4.873
		c2.092,0.717,3.809,1.076,5.719,2.395C316.199,126.624,317.698,128.229,318.027,130.279z M428.66,163.231
		c0.37,3.77-3.055,7.424-5.592,9.833c-3.733,3.541-9.573,5.861-14.354,7.74c-2.036,0.816-3.618,1.146-5.767,1.046
		c-2.239-0.072-4.619,0.687-1.879-0.789c-2.508-1.834-4.479-3.597-6.729-5.661c-2.688-2.508-5.993-4.429-8.932-6.679
		c-4.85-3.755-10.75-8.213-13.037-14.161c-1.48-3.871-1.48-9.245,1.098-12.571c1.828-2.307,4.711-4.543,7.524-5.433
		c3.526-1.16,7.362-0.889,11-0.644c3.569,0.271,7.35,1.405,10.214,3.583c2.074,1.577,3.791,3.597,5.961,5.032
		c1.105,0.716,2.143,1.36,3.184,2.177c1.31,1.061,2.896,1.333,4.43,1.92c2.309,0.861,4.201,1.305,5.725,3.268
		c1.443,1.835,2.701,3.813,4.08,5.705C426.869,159.389,428.428,160.952,428.66,163.231z"/>
	
		<linearGradient id="SVGID_3_" gradientUnits="userSpaceOnUse" x1="220.1709" y1="23.6816" x2="220.1709" y2="-24.3438" gradientTransform="matrix(0.8111 -0.5848 0.5848 0.8111 6.2686 413.4429)">
		<stop  offset="0" style="stop-color:#E8DDFF"/>
		<stop  offset="1" style="stop-color:#AA8AD8"/>
	</linearGradient>
	<path opacity="0.3" fill-rule="evenodd" clip-rule="evenodd" fill="url(#SVGID_3_)" d="M201.629,293.594
		c0.356,1.777,1.439,5.748,0.412,7.581c-1.144,2.093-4.656,1.691-6.558,1.964c-1.573,0.229-3.23,0.1-4.757,0.603
		c-1.278,0.401-2.365,1.175-3.703,1.404c-0.962,0.173-2.748,0.444-3.702,0.229c-1.102-0.244-1.832-1.047-2.772-1.677
		c-2.309-1.521-4.155-3.957-6.229-5.819c-1.295-1.189-1.795-2.466-2.383-4.1c-0.782-2.15-1.745-4.257-2.443-6.436
		c-1.004-3.139-2.244-6.421-2.49-9.732c-0.227-3.053,0.583-5.275,2.142-7.898c0.635-1.076,1.569-1.906,2.194-2.981
		c0.773-1.319,1.449-2.752,2.518-3.856c0.574-0.615,1.295-1.29,2.04-1.691c1.069-0.53,1.708-0.315,2.768-0.445
		c1.518-0.2,2.134-0.458,3.646,0.014c1.134,0.345,2.235,0.861,3.175,1.578c1.921,1.49,4.169,2.652,5.947,4.256
		c2.397,2.15,3.916,4.2,4.762,7.381c0.731,2.781,1.875,5.361,3.069,7.999c0.981,2.18,2.406,5.232,2.489,7.726
		C201.813,291.514,201.36,293.063,201.629,293.594z"/>
	
		<linearGradient id="SVGID_4_" gradientUnits="userSpaceOnUse" x1="213.645" y1="37.5767" x2="213.645" y2="30.5942" gradientTransform="matrix(0.8111 -0.5848 0.5848 0.8111 6.2686 413.4429)">
		<stop  offset="0" style="stop-color:#E8DDFF"/>
		<stop  offset="1" style="stop-color:#AA8AD8"/>
	</linearGradient>
	<path opacity="0.3" fill-rule="evenodd" clip-rule="evenodd" fill="url(#SVGID_4_)" d="M196.64,313.902
		c-0.25,1.191-0.171,2.323,0.264,3.412c1.685-0.214,3.249,2.121,5.132,1.305c0.129-1.549,1.489-4.17-0.667-5.061
		c-0.31-0.129-0.962,0.145-1.305,0.088c-0.509-0.088-0.939-0.531-1.42-0.445c-1.023,0.172-2.717,1.935-3.583,2.551L196.64,313.902z"
		/>
	
		<linearGradient id="SVGID_5_" gradientUnits="userSpaceOnUse" x1="303.6812" y1="100.2427" x2="303.6812" y2="-57.3486" gradientTransform="matrix(0.8111 -0.5848 0.5848 0.8111 6.2686 413.4429)">
		<stop  offset="0" style="stop-color:#E8DDFF"/>
		<stop  offset="1" style="stop-color:#AA8AD8"/>
	</linearGradient>
	<path opacity="0.3" fill-rule="evenodd" clip-rule="evenodd" fill="url(#SVGID_5_)" d="M236.351,303.439
		c1.633,0.831,2.406,1.246,4.077,1.434c1.333,0.145,2.846,0.129,4.193,0.229c2.383,0.171,5.437-0.085,7.76,0.544
		c2.323,0.631,2.846,2.236,4.263,3.813c0.855,0.946,1.934,1.791,2.86,2.694c0.532,0.501,1.12,0.788,1.596,1.404
		c0.546,0.688,0.894,1.42,1.592,2.008c1.37,1.146,3.16,1.504,4.531,2.695c1.041,0.902,1.944,2.049,3.346,2.507
		c1.097,0.345,2.073-0.028,3.17,0c1.375,0.044,2.628,0.445,3.925,0.86c4.41,1.447,7.377,5.046,11.546,6.794
		c3.799,1.576,7.941-2.607,11.102-4.057c0.514-0.243,1.189-0.171,1.647-0.544c0.481-0.416,0.708-1.247,1.046-1.763
		c0.676-1.032,1.406-1.649,2.471-2.149c0.64-0.302,0.606,0.343,1.292-0.445c0.394-0.475,0.394-1.778,0.361-2.351
		c-0.125-1.849-1.143-2.896-2.541-3.984c-1.426-1.119-2.824-2.309-4.263-3.427c-1.319-1.031-2.846-1.734-4.063-2.938
		c-1.162-1.19-1.865-2.709-3.054-3.885c-2.864-2.839-5.845-3.081-9.788-3.655c-3.591-0.517-8.121,0.144-10.371-3.339
		c-0.917-1.404-0.352-1.878-0.356-3.297c-0.019-1.549-0.689-3.282-0.259-4.859c0.157-0.588,1.203-1.978,1.61-2.58
		c0.768-1.146,1.778-2.25,2.402-3.497c0.708-1.435,0.074-2.28,0.208-3.698c0.088-0.875,0.324-0.546,0.694-1.319
		c0.472-0.96,0.472-1.204,0.602-2.365c0.204-1.735,0.324-3.254-0.051-4.988c-0.319-1.477-0.551-2.666-0.319-4.186
		c0.272-1.749,0.685-3.684,1.203-5.36c0.528-1.734,1.545-3.583,2.832-4.873c0.667-0.659,1.49-1.047,2.25-1.604
		c2.166-1.578,3.322-4.258,4.664-6.509c1.977-3.326,3.865-9.918,8.923-8.787c1.527,0.345,2.518,1.678,4.119,1.764
		c3.462,0.143,5.221-3.195,6.779-5.734c2.634-4.271,3.814-9.129,4.846-13.974c0.676-3.126,1.176-5.792-0.652-8.601
		c-3.531-5.431-10.384-5.904-14.716-10.405c-4.166-4.357-5.72-11.094-8.437-16.369c-1.37-2.666-3.906-5.762-6.803-6.752
		c-0.958-0.329-2.472-0.587-3.555-0.573c-2.522,0.015-3.262,1.477-5.225,2.479c-1.361,0.688-2.225,0.459-3.582,0.359
		c-3.642-0.273-7.154,3.798-9.871,5.705c-3.984,2.794-8.682,5.461-13.573,6.006c-5.753,0.66-11.486,1.118-17.276,1.075
		c-4.206-0.043-8.732-0.101-12.902,0.501c-2.953,0.444-5.748,2.007-8.229,3.612c-3.493,2.279-5.895,5.333-6.196,9.633
		c-0.282,4.042,1.86,4.644,4.781,6.793c0.939,0.688,3.049,1.979,3.179,3.34c0.194,2.035-2.809,3.612-4.198,4.601
		c-1.226,0.859-4.221,2.221-3.836,4.171c0.287,1.447,2.503,3.569,3.341,4.745c0.838,1.145,1.467,2.693,2.897,3.009
		c1.102,0.258,2.064-0.357,3.123-0.501c1.861-0.259,3.074,0.759,4.721,1.36c1.249,0.475,2.573,0.316,3.859,0.475
		c1.583,0.185,3.337,0.93,4.934,0.687c2.734-0.386,4.317-2.351,7.334-1.893c1.018,0.159,2.091,0.588,3.138,0.502
		c0.837-0.058,1.633-0.502,2.42-0.731c1.953-0.558,4.97-1.217,6.539,0.561c1.597,1.804-0.075,4.93-1.282,6.42
		c-1.106,1.361-3.129,2.924-2.429,4.831c0.601,1.591,2.318,2.221,2.364,4.128c0.157,5.977-7.57,6.665-11.254,9.474
		c-5.554,4.228-5.146,11.166-5.036,17.387c0.019,0.602-0.254,1.189-0.231,1.763c0.023,1.032,0.546,1.275,0.759,2.193
		c0.286,1.218-0.366,2.508-0.926,3.556c-0.792,1.445-1.254,2.45-2.564,3.469c-1.411,1.088-3.184,1.961-4.479,3.195
		c-2.592,2.465-1.269,6.45,1.36,8.499c1.68,1.305,4.581,1.134,6.512,2.063c1.522,0.746,2.93,1.678,4.604,2.15
		c0.898,0.259,2.013,0.188,2.966,0.344C236.198,303.511,237.323,304.43,236.351,303.439z"/>
	
		<linearGradient id="SVGID_6_" gradientUnits="userSpaceOnUse" x1="411.8809" y1="215.1938" x2="411.8809" y2="63.3433" gradientTransform="matrix(0.8111 -0.5848 0.5848 0.8111 6.2686 413.4429)">
		<stop  offset="0" style="stop-color:#E8DDFF"/>
		<stop  offset="1" style="stop-color:#AA8AD8"/>
	</linearGradient>
	<path opacity="0.3" fill-rule="evenodd" clip-rule="evenodd" fill="url(#SVGID_6_)" d="M354.605,243.627
		c0.875,1.763,1.333,2.996,2.56,4.357c1.019,1.132,2.114,2.093,3.04,3.312c2.457,3.21,4.262,6.995,6.622,10.32
		c1.388,1.949,3.096,3.153,4.776,4.787c2.203,2.15,3.004,5.075,4.794,7.482c2.453,3.325,5.05,6.737,9.195,7.954
		c1.62,0.488,2.921,0.502,4.425-0.458c1.355-0.86,1.935-2.335,3.323-3.21c1.171-0.745,2.401-0.501,3.748-0.76
		c1.708-0.329,3.405-0.773,5.091-1.204c1.592-0.43,2.577-0.33,4.191-0.1c1.371,0.186,2.848-0.272,4.014,0.715
		c1.244,1.063,0.407,2.795,0.338,4.258c-0.19,2.938-0.402,5.546-1.842,8.184c-0.912,1.648-1.564,2.094-3.305,2.652
		c-1.615,0.529-3.16,0.946-3.855,2.736c-0.926,2.324-1.383,5.075-1.105,7.555c0.027,0.33,0.375,1.491,0.505,1.706
		c0.614,1.046,0.188,0.357,1.114,0.759c1.032,0.445,1.907,0.561,2.634,1.577c1.046,1.448,1.796,4.071,2.004,5.819
		c0.144,1.232,0.144,2.594-0.194,3.813c-0.408,1.434-0.356,2.781-0.902,4.2c-1.051,2.752-1.102,5.489-2.48,8.197
		c-1.625,3.169-2.68,6.565-3.726,9.963c-2.193,7.153-5.484,13.445-4.614,21.17c0.213,1.878,1.578,5.189,3.462,6.035
		c0.75,0.343,2.004,0.157,2.86,0.372c1.582,0.388,2.536,1.262,3.873,2.151c1.444,0.974,3.605,2.478,5.433,2.55
		c1.778,0.086,4.243-1.017,5.733-1.993c0.904-0.572,1.616-1.202,2.561-1.705c0.708-0.372,1.333-0.415,2.077-0.888
		c2.587-1.663,4.638-3.268,7.941-3.483c1.12-0.07,2.165,0.144,3.239,0.459c1.246,0.358,2.598,1.347,3.879,1.52
		c2.605,0.329,4.863-3.427,5.97-5.132c1.634-2.494,3.151-5.819,6.021-7.166c1.731-0.817,3.703-0.431,5.554-1.005
		c2.546-0.772,4.55-1.231,7.196-1.391c1.111-0.07,1.703-0.014,2.697-0.658c3.027-1.936,4.647-5.646,6.123-8.787
		c1.74-3.725,2.911-7.683,4.66-11.394c1.934-4.087,2.852-7.411,3.609-11.868c0.681-3.985,2.314-7.568,3.484-11.423
		c0.875-2.912,1.648-5.864,2.472-8.787c0.853-3.01,0.958-6.164,1.36-9.246c0.324-2.451,0.889-4.702,0.77-7.166
		c-0.131-2.752-0.496-5.59-0.339-8.314c0.181-2.953,0.157-5.519-0.235-8.442c-0.352-2.68-1.385-7.682-5.248-7.181
		c-2.758,0.359-5.316,3.125-7.512,4.644c-3.502,2.452-7.746,2.093-11.694,1.162c-3.212-0.774-6.22-2.051-9.486-2.538
		c-1.62-0.244-3.81-1.047-5.405-0.487c-1.203,0.416-2.578,1.606-3.411,2.508c-2.036,2.208-4.364,4.042-7.122,5.304
		c-2.43,1.118-5.915,2.58-8.621,2.179c-1.744-0.258-3.472-1.089-5.17-1.577c-2.494-0.731-4.23-4.115-4.864-6.522
		c-1.354-5.088-4.095-9.689-5.239-14.836c-0.717-3.238,3.087-4.887,4.352-7.625c0.994-2.135,0.685-4.186,0.985-6.407
		c0.255-1.92,1.227-3.941,1.801-5.806c1.971-6.192-0.875-11.767-7.554-13.372c-3.826-0.917-7.584,0.328-9.939,3.397
		c-1.047,1.347-2.186,2.679-3.074,4.156c-1.17,1.936-1.864,3.999-3.512,5.648c-6.331,6.278-15.18,6.694-23.445,7.525
		c-3.83,0.373-7.969,1.333-11.379,3.096c-1.883,0.989-2.471,1.146-3.41,3.21c-0.662,1.477-1.426,2.264-2.287,3.627
		C353.259,245.132,353.231,246.837,354.605,243.627z"/>
	
		<radialGradient id="SVGID_7_" cx="195.0122" cy="-38.8271" r="118.2781" gradientTransform="matrix(0.8111 -0.5848 0.5848 0.8111 6.2686 413.4429)" gradientUnits="userSpaceOnUse">
		<stop  offset="0" style="stop-color:#A9FAFF"/>
		<stop  offset="1" style="stop-color:#70B7F8"/>
	</radialGradient>
	<path fill-rule="evenodd" clip-rule="evenodd" fill="url(#SVGID_7_)" d="M233.361,114.368c-0.18,0.172-0.375,0.388-0.587,0.617
		c-2.551,3.023-5.678,5.389-8.96,7.767c-0.731,0.516-1.592,1.449-2.402,1.764c-0.643,0.273-1.088,0.129-1.754,0.501
		c-1.425,0.718-2.915,1.491-4.345,2.064c-2.564,0.96-5.021,3.226-7.33,4.931c-2.814,2.064-6.674,2.823-9.228,5.131
		c-2.805,2.509-4.818,5.763-7.937,7.94l-2.147,1.548c-1.824,1.348-1.865,2.997-3.253,5.26c0.491,1.591,1.754,4.144,1.296,5.82
		c-0.158,0.559-0.509,1.247-0.805,1.734c-0.903,1.405-1.625,2.925-2.712,4.213c-2.035,2.467-4.101,5.032-6.622,6.995
		c-2.115,1.649-4.388,2.71-6.683,4.042c-4.508,2.652-8.927,4.958-11.644,9.675c-1.471,2.595-2.859,5.289-4.387,7.883
		c-0.888,1.491-2.027,3.11-2.591,4.716c-0.463,1.233-0.584,2.594-0.94,3.856c-0.458,1.505-1.777,2.537-2.633,3.856
		c-1.022,1.604-1.203,3.168-1.272,5.044c-0.05,2.537,1.574,4.372,1.796,6.694c0.102,1.434-0.574,2.566-1.125,3.77
		c-2.513,5.618-0.602,11.181-1.352,17.057c-0.527,4.286-3.442,7.841-4.294,12.14c-0.902,4.285-1.059,8.7-1.407,13.057
		c-0.208,2.953-1.064,4.387-2.499,6.752c-1.36,2.321-2.68,5.432-2.924,8.127c-0.273,2.924-0.449,5.747-1.019,8.642
		c-0.43,2.279-1.634,4.287-1.985,6.579c-0.273,2.106,0.269,4.185,0.389,6.278c0.277,4.63,1.698,8.944,2.143,13.545
		c0.329,3.77-0.759,8.214,1.388,11.567c0.769,1.219,1.421,1.706,2.439,2.58c1.467,1.232,2.272,3.153,3.475,4.673
		c0.708,0.874,1.546,1.333,2.403,1.993c1.083,0.858,1.948,2.049,3.16,2.737c2.004,1.09,4.471,1.09,6.563,1.862
		c2.439,0.933,3.804,2.938,4.568,5.317c0.777,2.451,1.495,5.061,2.11,7.556c0.977,3.868,0.195,8.412,1.8,12.14
		c0.615,1.389,1.865,2.221,2.925,3.196c1.263,1.16,2.578,2.58,3.711,3.868c1.226,1.377,2.023,2.968,2.633,4.675
		c0.407,1.189,0.407,2.307,0.458,3.668c0.032,0.573-0.269,1.176-0.269,1.749c0.024,1.061,0.556,1.95,0.769,2.982
		c0.208,1.031,0.811,3.41,0.264,4.413c-1.129,2.107-4.262-0.917-4.613,0.945c-0.273,1.306,1.634,2.739,2.221,3.756
		c0.759,1.348,1.375,3.239,1.634,4.773c0.601,3.141,0.116,4.415,2.601,6.493c2.032,1.691,4.109,2.867,6.525,3.928
		c2.93,1.261,4.031,3.812,6.317,5.732c1.213,1.048,1.902,2.538,2.892,3.785c0.958,1.231,2.221,1.819,3.346,2.838
		c0.796,0.731,2.003,2.05,2.258,3.124c0.185,0.803-0.375,1.691-0.467,2.452c-0.157,1.533,0.536,2.564,1.083,3.94
		c0.745,2.108,1.67,3.67,2.98,5.476c-16.175-11.423-30.738-25.714-42.975-42.67c-56.056-77.758-42.862-184.399,27.739-246.392
		c3.48-3.096,7.099-6.048,10.908-8.871c0,0,0.027-0.014,0.046-0.029c0.999-0.802,2.031-1.548,3.063-2.293
		C209.315,126.251,221.139,119.615,233.361,114.368z"/>
</g>
</svg>
