<?xml version="1.0" encoding="utf-8"?>
<!-- Generator: Adobe Illustrator 16.0.3, SVG Export Plug-In . SVG Version: 6.00 Build 0)  -->
<!DOCTYPE svg PUBLIC "-//W3C//DTD SVG 1.1//EN" "http://www.w3.org/Graphics/SVG/1.1/DTD/svg11.dtd">
<svg version="1.1" id="Layer_1" xmlns="http://www.w3.org/2000/svg" xmlns:xlink="http://www.w3.org/1999/xlink" x="0px" y="0px"
	 width="612px" height="568px" viewBox="0 0 612 568" enable-background="new 0 0 612 568" xml:space="preserve">
<g opacity="0.75">
	<defs>
		<filter id="Adobe_OpacityMaskFilter" filterUnits="userSpaceOnUse" x="19.308" y="166.666" width="566.272" height="261.632">
			<feColorMatrix  type="matrix" values="1 0 0 0 0  0 1 0 0 0  0 0 1 0 0  0 0 0 1 0"/>
		</filter>
	</defs>
	<mask maskUnits="userSpaceOnUse" x="19.308" y="166.666" width="566.272" height="261.632" id="SVGID_1_">
		<g filter="url(#Adobe_OpacityMaskFilter)">
			<linearGradient id="SVGID_2_" gradientUnits="userSpaceOnUse" x1="308.9219" y1="190.7729" x2="295.4969" y2="411.1661">
				<stop  offset="0" style="stop-color:#FFFFFF"/>
				<stop  offset="0.1131" style="stop-color:#EAEAEA"/>
				<stop  offset="0.3478" style="stop-color:#B2B2B2"/>
				<stop  offset="0.6806" style="stop-color:#5A5A5A"/>
				<stop  offset="1" style="stop-color:#000000"/>
			</linearGradient>
			<path fill="url(#SVGID_2_)" d="M581.959,178.182c0.05-0.056,0.093-0.109,0.137-0.163c0.352-0.419,0.681-0.829,0.979-1.222
				c0.034-0.047,0.062-0.09,0.092-0.133c0.304-0.404,0.578-0.8,0.82-1.181c0.011-0.013,0.017-0.025,0.026-0.039
				c0.235-0.371,0.441-0.727,0.622-1.072c0.022-0.039,0.044-0.077,0.064-0.115c0.167-0.332,0.306-0.653,0.426-0.959
				c0.021-0.053,0.047-0.115,0.067-0.166c0.108-0.298,0.192-0.58,0.252-0.856c0.013-0.058,0.023-0.114,0.036-0.17
				c0.05-0.27,0.083-0.532,0.09-0.78c0.003-0.049,0-0.097,0-0.142c-0.003-0.252-0.024-0.494-0.072-0.724
				c-0.008-0.031-0.018-0.062-0.022-0.092c-0.059-0.241-0.141-0.472-0.248-0.691c-6.337-12.394-97.487,14.199-221.867,66.498
				c-21.375-18.884-52.46-28.587-86.93-19.046c-2.988,0.832-5.995,1.814-9.036,2.936c-1.229,0.454-2.426,0.929-3.61,1.415
				c-0.396,0.16-0.783,0.331-1.174,0.496c-0.799,0.336-1.587,0.681-2.364,1.032c-0.417,0.186-0.833,0.376-1.244,0.566
				c-0.809,0.375-1.605,0.765-2.393,1.156c-0.313,0.158-0.635,0.308-0.944,0.47c-1.046,0.534-2.071,1.08-3.074,1.64
				c-0.336,0.187-0.662,0.383-0.994,0.571c-0.698,0.401-1.388,0.808-2.067,1.217c-0.379,0.231-0.754,0.468-1.128,0.699
				c-0.647,0.409-1.282,0.817-1.91,1.237c-0.327,0.219-0.662,0.432-0.986,0.653c-0.908,0.624-1.799,1.251-2.666,1.893
				c-0.171,0.125-0.33,0.255-0.497,0.381c-0.722,0.542-1.43,1.093-2.123,1.652c-0.293,0.234-0.578,0.47-0.868,0.712
				c-0.573,0.472-1.138,0.956-1.694,1.441c-0.269,0.236-0.542,0.473-0.807,0.713c-0.661,0.593-1.304,1.195-1.94,1.804
				c-0.123,0.122-0.254,0.239-0.378,0.361c-0.757,0.736-1.488,1.487-2.199,2.241c-0.181,0.191-0.352,0.381-0.528,0.575
				c-0.542,0.586-1.073,1.179-1.59,1.778c-0.198,0.227-0.391,0.455-0.583,0.681c-0.533,0.631-1.049,1.265-1.553,1.906
				c-0.128,0.163-0.261,0.322-0.385,0.483c-0.639,0.824-1.259,1.659-1.854,2.503c-0.036,0.05-0.071,0.104-0.107,0.153
				c-0.548,0.781-1.072,1.564-1.583,2.356c-0.123,0.19-0.245,0.389-0.367,0.58c-0.438,0.695-0.865,1.395-1.277,2.101
				c-0.1,0.173-0.201,0.343-0.299,0.513c-1.011,1.768-1.938,3.561-2.783,5.382c-0.06,0.131-0.118,0.263-0.178,0.393
				c-0.357,0.784-0.7,1.57-1.027,2.366c-0.071,0.17-0.143,0.34-0.211,0.513c-0.352,0.872-0.688,1.744-1.003,2.623
				c-0.014,0.041-0.029,0.081-0.043,0.117c-0.35,0.978-0.676,1.958-0.981,2.946c-0.008,0.019-0.012,0.036-0.018,0.057
				c-0.282,0.914-0.54,1.829-0.784,2.752c-0.046,0.169-0.09,0.334-0.134,0.505c-0.212,0.831-0.413,1.664-0.599,2.502
				c-0.028,0.13-0.06,0.26-0.086,0.39c-0.378,1.753-0.7,3.518-0.954,5.295c-0.024,0.169-0.041,0.342-0.062,0.513
				c-0.038,0.272-0.067,0.539-0.1,0.811c-0.088,0.712-0.172,1.423-0.241,2.138c-0.031,0.344-0.06,0.686-0.088,1.033
				c-0.052,0.641-0.102,1.283-0.138,1.932c-0.022,0.379-0.043,0.765-0.057,1.148c-0.028,0.611-0.047,1.22-0.061,1.834
				c-0.008,0.401-0.016,0.807-0.018,1.21c-0.005,0.6,0.001,1.202,0.009,1.804c0.007,0.404,0.012,0.808,0.024,1.213
				c0.018,0.619,0.048,1.237,0.081,1.854c0.022,0.384,0.036,0.768,0.062,1.15c0.047,0.688,0.107,1.372,0.168,2.059
				c0.028,0.31,0.05,0.622,0.082,0.933c0.103,1.001,0.219,1.999,0.356,2.995c-11.483,5.635-23.053,11.394-34.689,17.283
				C13.713,405.323-9.667,436.271,47.328,426.587c21.187-3.591,53.46-12.787,93.676-26.96
				c29.843-10.539,64.053-23.811,101.341-39.574c25.749,24.015,65.739,33.139,109.923,5.582c2.687-1.677,5.226-3.409,7.624-5.198
				c0.003-0.002,0.008-0.005,0.01-0.005c0.792-0.594,1.569-1.189,2.331-1.797c0.04-0.027,0.079-0.061,0.115-0.094
				c0.721-0.572,1.434-1.15,2.126-1.73c0.069-0.059,0.136-0.119,0.206-0.175c0.657-0.556,1.306-1.115,1.938-1.683
				c0.102-0.09,0.196-0.18,0.293-0.27c0.597-0.533,1.186-1.07,1.76-1.612c0.124-0.123,0.25-0.248,0.375-0.368
				c0.533-0.509,1.063-1.02,1.572-1.538c0.162-0.16,0.314-0.32,0.473-0.481c0.468-0.481,0.934-0.96,1.386-1.441
				c0.19-0.204,0.371-0.404,0.557-0.61c0.407-0.442,0.813-0.89,1.209-1.337c0.217-0.247,0.429-0.497,0.642-0.747
				c0.346-0.406,0.693-0.811,1.028-1.215c0.246-0.299,0.487-0.599,0.727-0.896c0.289-0.359,0.577-0.722,0.856-1.086
				c0.273-0.35,0.534-0.703,0.801-1.057c0.231-0.308,0.464-0.617,0.687-0.929c0.3-0.413,0.593-0.83,0.885-1.243
				c0.173-0.253,0.347-0.501,0.517-0.753c0.329-0.479,0.646-0.963,0.961-1.448c0.118-0.18,0.234-0.363,0.35-0.546
				c0.355-0.557,0.699-1.117,1.038-1.68c0.036-0.066,0.076-0.128,0.117-0.191c0.025-0.044,0.045-0.088,0.073-0.128
				c0.358-0.605,0.708-1.219,1.045-1.825c0.082-0.146,0.162-0.289,0.239-0.433c0.309-0.563,0.605-1.127,0.893-1.69
				c0.102-0.196,0.203-0.387,0.298-0.578c0.256-0.516,0.507-1.031,0.752-1.546c0.116-0.248,0.232-0.494,0.345-0.738
				c0.212-0.463,0.415-0.927,0.618-1.395c0.13-0.298,0.262-0.599,0.387-0.896c0.171-0.413,0.335-0.825,0.5-1.242
				c0.139-0.348,0.278-0.703,0.415-1.058c0.135-0.356,0.259-0.719,0.389-1.079c0.147-0.406,0.296-0.813,0.43-1.22
				c0.106-0.305,0.202-0.614,0.302-0.92c0.148-0.46,0.298-0.924,0.44-1.384c0.073-0.255,0.142-0.506,0.217-0.758
				c0.146-0.515,0.297-1.032,0.43-1.545c0.055-0.201,0.103-0.403,0.153-0.604c0.143-0.567,0.285-1.132,0.414-1.697
				c0.036-0.15,0.063-0.304,0.097-0.451c0.139-0.619,0.271-1.231,0.389-1.85c0.021-0.1,0.035-0.203,0.057-0.302
				c0.123-0.666,0.243-1.332,0.35-1.998c0.007-0.048,0.014-0.091,0.021-0.143c0.112-0.717,0.219-1.433,0.307-2.151l0,0
				c0.382-3.033,0.568-6.08,0.563-9.119c-0.005-2.729-0.167-5.456-0.465-8.17c21.695-10.88,43.764-22.29,66.061-34.268
				c3.527-1.893,7.089-3.798,10.626-5.724c1.76-0.951,3.489-1.893,5.204-2.832c0.27-0.145,0.535-0.289,0.807-0.439
				c1.461-0.794,2.906-1.588,4.336-2.37c0.29-0.161,0.582-0.321,0.873-0.483c1.537-0.843,3.061-1.684,4.563-2.515
				c0.681-0.377,1.35-0.75,2.02-1.124c0.707-0.389,1.409-0.783,2.105-1.169c0.45-0.249,0.912-0.508,1.362-0.757
				c0.341-0.194,0.666-0.376,1.011-0.567c1.627-0.912,3.234-1.814,4.821-2.707c0.531-0.299,1.053-0.597,1.581-0.895
				c1.71-0.962,3.397-1.92,5.051-2.863c0.324-0.183,0.64-0.366,0.961-0.552c3.838-2.19,7.53-4.327,11.075-6.397
				c0.045-0.025,0.094-0.053,0.139-0.082c1.83-1.067,3.618-2.122,5.372-3.161c0.065-0.038,0.13-0.079,0.197-0.116
				c1.758-1.042,3.476-2.066,5.157-3.077c0.033-0.019,0.069-0.044,0.106-0.064c27.478-16.519,44.753-28.822,53.256-37.275
				c0.027-0.027,0.057-0.05,0.086-0.081c0.491-0.49,0.948-0.968,1.385-1.431c0.047-0.05,0.091-0.099,0.135-0.15
				C581.214,179.045,581.602,178.605,581.959,178.182z M94.699,399.282c-18.756-3.332,10.305-29.266,114.545-82.554
				c1.978-1.021,3.972-2.029,5.949-3.034c4.003,16.315,12.609,31.771,24.641,43.912C166.325,387.252,111.452,402.277,94.699,399.282
				z M430.688,266.44c-12.979,7.139-25.89,14.038-38.645,20.682c-1.375-8.738-4.276-17.26-8.45-25.236
				c-3.526-6.754-7.979-13.088-13.226-18.821c83.166-33.364,142.571-49.009,147.371-39.519c1.092,2.133-0.62,5.555-5.443,10.344
				C501.637,224.454,475.701,241.663,430.688,266.44z"/>
		</g>
	</mask>
	<g mask="url(#SVGID_1_)">
		<radialGradient id="SVGID_3_" cx="304.083" cy="312.8164" r="79.8959" gradientUnits="userSpaceOnUse">
			<stop  offset="0" style="stop-color:#A9FAFF"/>
			<stop  offset="1" style="stop-color:#70B7F8"/>
		</radialGradient>
		<path fill="url(#SVGID_3_)" d="M392.973,298.757c0.023,12.473-3.148,25.038-10.122,36.748
			c-6.596,11.107-16.622,21.435-30.582,30.13c-44.184,27.557-84.174,18.433-109.923-5.582c-0.853-0.808-1.692-1.617-2.512-2.446
			c-12.032-12.141-20.638-27.597-24.641-43.912c8.903-4.514,17.737-8.906,26.505-13.178c4.744-2.334,9.453-4.612,14.146-6.88
			c18.237-8.747,36.094-16.983,53.382-24.678c17.308-7.701,34.026-14.828,49.97-21.356c3.764-1.545,7.495-3.058,11.171-4.538
			c5.246,5.732,9.699,12.067,13.226,18.821c4.174,7.976,7.075,16.498,8.45,25.236c0.184,1.148,0.332,2.314,0.465,3.465
			C392.806,293.301,392.968,296.028,392.973,298.757z"/>
		<radialGradient id="SVGID_4_" cx="291.499" cy="263.5522" r="66.0849" gradientUnits="userSpaceOnUse">
			<stop  offset="0" style="stop-color:#A9FAFF"/>
			<stop  offset="1" style="stop-color:#70B7F8"/>
		</radialGradient>
		<path fill="url(#SVGID_4_)" d="M370.367,243.065c-3.676,1.479-7.407,2.993-11.171,4.538c-15.943,6.528-32.662,13.655-49.97,21.356
			c-17.289,7.694-35.145,15.931-53.382,24.678c-4.693,2.268-9.403,4.546-14.146,6.88c-8.768,4.271-17.602,8.664-26.505,13.178
			c-0.763-3.038-1.352-6.113-1.767-9.186c-1.036-7.536-1.075-15.168-0.019-22.626c3.633-25.551,20.175-49.289,53.987-61.819
			c3.041-1.122,6.048-2.104,9.036-2.936c34.47-9.541,65.555,0.162,86.93,19.049C365.84,238.35,368.165,240.657,370.367,243.065z"/>
		
			<radialGradient id="SVGID_5_" cx="368.4785" cy="184.8848" r="250.6609" gradientTransform="matrix(1 0.0038 -0.0038 1 0.7314 1.355)" gradientUnits="userSpaceOnUse">
			<stop  offset="0" style="stop-color:#A9FAFF"/>
			<stop  offset="1" style="stop-color:#70B7F8"/>
		</radialGradient>
		<path fill="url(#SVGID_5_)" d="M392.973,298.757c0.028,24.313-12.039,49.008-40.704,66.878
			c-44.184,27.557-84.174,18.433-109.923-5.582c-0.853-0.808-1.692-1.617-2.512-2.446c-12.032-12.141-20.638-27.597-24.641-43.912
			c-0.763-3.038-1.352-6.113-1.767-9.186c-4.574-33.335,10.277-68.26,53.969-84.445c3.041-1.122,6.048-2.104,9.036-2.936
			c-0.373,2.864-1.121,5.933-2.298,9.188c-5.533,15.317-23.512,19.644-28.05,35.616c-3.373,11.894-6.071,25.798-4.384,38.585
			c0.666,5.118,2.038,10.044,4.337,14.586c2.077,4.088,4.962,8.079,9.192,9.863c4.231,1.767,9.983,0.504,11.887-3.658
			c3.079-6.68-4.791-12.802-8.56-19.132c-1.549-2.596-2.414-5.515-2.71-8.539c-0.397-3.809,0.099-7.767,1.157-11.455
			c2.834-9.836,9.782-18.628,19.199-22.641c9.401-4.013,21.148-2.683,28.757,4.157c1.692,1.516,3.127,3.304,4.269,5.26
			c4.039,6.866,4.592,15.826,0.464,22.64c-4.438,7.306-13.015,11.221-17.862,18.252c-6.088,8.796-4.664,21.909,3.012,29.37
			c7.676,7.454,20.642,8.534,29.584,2.648c8.928-5.884,13.04-18.067,9.717-28.236c-1.525-4.708-4.46-8.987-5.008-13.918
			c-0.531-4.91,2.905-10.848,7.811-10.245c3.977,0.479,6.243,4.811,7.035,8.746c0.774,3.909,0.877,8.217,3.321,11.402
			c4.247,5.556,13.877,4.082,18.052-1.547c4.176-5.626,3.878-13.507,1.586-20.137c-2.104-6.149-5.768-12.734-3.187-18.711
			c2.803-6.494,12.018-7.968,19.842-7.337c4.174,7.976,7.075,16.498,8.45,25.236c0.184,1.148,0.332,2.314,0.465,3.465
			C392.806,293.301,392.968,296.028,392.973,298.757z"/>
		
			<radialGradient id="SVGID_6_" cx="389.5615" cy="90.0068" r="265.6701" gradientTransform="matrix(1 0.0038 -0.0038 1 0.7314 1.355)" gradientUnits="userSpaceOnUse">
			<stop  offset="0" style="stop-color:#A9FAFF"/>
			<stop  offset="1" style="stop-color:#70B7F8"/>
		</radialGradient>
		<path fill="url(#SVGID_6_)" d="M217.911,303.715c-0.656-17.719,5.435-34.435,14.783-49.305
			c3.641-5.788,8.802-11.807,15.639-11.866c-12.373,12.666-18.863,30.668-18.094,48.297c0.348,8.006,2.097,16.653,4.082,24.413
			c0.585,2.289,11.43,22.819,11.927,21.859c1.016-1.954,2.551-4.21,4.741-3.995c1.642,0.166,2.784,1.719,3.393,3.248
			c0.61,1.534,0.931,3.223,1.953,4.513c2.094,2.65,6.41,2.477,9.16,0.519c2.749-1.959,4.292-5.158,5.645-8.253
			c2.029-4.647,3.907-9.43,4.522-14.465c1.372-11.171-6.02-21.483-4.733-32.959c0.766-6.853,6.958-19.051,15.574-16.712
			c3.915,1.063,6.8,4.884,7.118,8.924c0.316,4.04-1.76,8.095-5.012,10.522c3.21-1.169,7.436-2.079,9.522,0.633
			c1.539,1.994,0.853,5.036-0.828,6.913c-3.495,3.895-8.814,3.841-11.605,8.505c-2.308,3.844-3.863,10.438-5.049,14.795
			c-1.76,6.492-4.239,20.615,4.51,23.369c2.345,0.739,5.301,0.666,6.66,2.716c0.97,1.47,0.609,3.516-0.396,4.955
			c-1.005,1.446-2.532,2.433-4.019,3.378c5.93,5.223,12.966,5.805,19.349,9.581c1.745,1.039,3.817,1.801,5.784,1.306
			c1.965-0.493,3.565-2.698,2.803-4.576c-0.873-2.124-3.714-2.347-6.002-2.554c-2.288-0.206-5.153-1.55-4.766-3.816
			c0.308-1.813,2.696-2.549,4.447-1.969c1.749,0.573,3.072,1.984,4.557,3.071c3.979,2.925,9.528,3.556,14.061,1.594
			s7.874-6.437,8.468-11.338c0.291-2.423-0.041-4.891,0.245-7.312c0.684-5.778,4.36-7.984,4.006-14.657
			c-0.366-6.881-2.392-13.667-4.613-20.148c6.595,5.829,4.122,17.052,9.014,24.364c1.174,1.758,3.119,3.349,5.191,2.944
			c3.248-0.641,3.756-5.146,6.17-7.406c1.592-1.488,4.131-1.857,6.083-0.884c1.949,0.973,3.18,3.223,2.944,5.389
			c2.526-2.119,5.086-4.284,6.932-7.018c1.846-2.735,2.911-6.176,2.114-9.38c-0.384-1.538-1.175-2.969-1.376-4.54
			c-0.511-4.05,1.766-8.176,1.548-12.394c-0.219-4.33-2.357-8.33-2.498-12.628c-0.081-2.418,0.971-5.113,3.223-5.997
			c2.278-0.905,4.962,0.435,6.348,2.453c1.386,2.022,1.755,4.556,1.974,6.997c1.524,16.896-2.571,34.25-11.489,48.687
			c-11.399,18.446-29.395,29.932-49.863,35.941c-32.118,9.432-69.443-2.682-89.904-29.175
			C224.028,329.737,218.402,316.988,217.911,303.715z"/>
		<radialGradient id="SVGID_7_" cx="303.1899" cy="274.4575" r="76.7715" gradientUnits="userSpaceOnUse">
			<stop  offset="0" style="stop-color:#A9FAFF"/>
			<stop  offset="1" style="stop-color:#70B7F8"/>
		</radialGradient>
		<path fill="url(#SVGID_7_)" d="M382.919,335.008c0.791-8.271,1.594-12.075,4.462-19.588c2.596-6.786,2.386-15.607,1.656-22.709
			c-1.622-15.739-8.642-30.926-19.341-42.549c-17.051-18.523-42.223-28.318-67.346-29.972
			c-26.615-1.753-55.119,10.596-71.245,32.109c-3.862,5.15-10.851,25.061-17.698,29.584c3.633-25.551,20.175-49.289,53.987-61.819
			c3.041-1.122,6.048-2.104,9.036-2.936c34.47-9.541,65.555,0.162,86.93,19.049c2.479,2.173,4.805,4.48,7.007,6.889
			c5.246,5.732,9.699,12.067,13.226,18.821c4.174,7.976,7.075,16.498,8.45,25.236c0.184,1.148,0.332,2.314,0.465,3.465
			c0.298,2.714,0.46,5.441,0.465,8.17c0.023,12.473-3.148,25.038-10.122,36.748C382.884,335.331,382.903,335.178,382.919,335.008z"
			/>
		<radialGradient id="SVGID_8_" cx="302.4438" cy="297.4814" r="220.5437" gradientUnits="userSpaceOnUse">
			<stop  offset="0" style="stop-color:#A9FAFF"/>
			<stop  offset="1" style="stop-color:#70B7F8"/>
		</radialGradient>
		<path fill="url(#SVGID_8_)" d="M490.465,238.906c-6.688,3.73-13.788,7.633-21.271,11.688c-3.537,1.926-7.099,3.831-10.626,5.724
			c-22.297,11.978-44.365,23.388-66.061,34.268c-0.133-1.15-0.281-2.316-0.465-3.465c12.755-6.644,25.666-13.543,38.645-20.682
			c45.014-24.777,70.949-41.986,81.607-52.549c4.823-4.79,6.535-8.211,5.443-10.344c-4.8-9.49-64.205,6.155-147.371,39.519
			c-46.149,18.51-99.653,42.479-155.174,70.629c-1.977,1.005-3.971,2.013-5.949,3.034c-104.24,53.288-133.301,79.222-114.545,82.554
			c16.752,2.995,71.626-12.03,145.135-41.676c0.82,0.829,1.659,1.639,2.512,2.446c-37.288,15.764-71.499,29.035-101.341,39.574
			c-40.216,14.173-72.49,23.369-93.676,26.96c-56.996,9.684-33.615-21.264,131.409-104.795c11.636-5.89,23.206-11.648,34.689-17.283
			c52.803-25.861,103.676-48.881,149.935-68.332c124.38-52.301,215.53-78.895,221.867-66.5
			C589.091,177.223,561.401,199.304,490.465,238.906z"/>
		<radialGradient id="SVGID_9_" cx="302.4429" cy="297.4814" r="220.5431" gradientUnits="userSpaceOnUse">
			<stop  offset="0" style="stop-color:#A9FAFF"/>
			<stop  offset="1" style="stop-color:#70B7F8"/>
		</radialGradient>
		<path fill="url(#SVGID_9_)" d="M469.194,250.595c-3.537,1.926-7.099,3.831-10.626,5.724c9.445-6.055,18.905-12.108,28.364-18.165
			c18.42-11.802,36.892-23.569,54.814-36.147c6.467-4.554,32.323-17.806,31.67-26.697c-0.114-1.611-1.465-2.923-2.97-3.494
			c-1.527-0.57-3.191-0.526-4.807-0.463c-37.573,1.675-72.143,18.874-107.562,29.617c-28.154,8.539-54.301,22.319-81.386,33.593
			c-93.596,38.97-187.731,78.209-274.453,131.239c-22.615,13.828-44.378,29.135-65.797,44.718
			c-4.198,3.041-8.881,7.945-6.635,12.603c1.908,3.954,7.311,4.3,11.687,3.972c1.938-0.142,3.896-0.31,5.834-0.508
			c-56.996,9.684-33.615-21.264,131.409-104.795c11.636-5.89,23.206-11.648,34.689-17.283
			c52.803-25.861,103.676-48.881,149.935-68.332c124.38-52.301,215.53-78.895,221.867-66.5
			C589.447,177.945,555.896,203.608,469.194,250.595z"/>
		<radialGradient id="SVGID_10_" cx="168.5225" cy="380.416" r="54.636" gradientUnits="userSpaceOnUse">
			<stop  offset="0.9413" style="stop-color:#000000"/>
			<stop  offset="0.9484" style="stop-color:#000506"/>
			<stop  offset="0.9578" style="stop-color:#001217"/>
			<stop  offset="0.9685" style="stop-color:#002932"/>
			<stop  offset="0.9801" style="stop-color:#004858"/>
			<stop  offset="0.9923" style="stop-color:#006F89"/>
			<stop  offset="1" style="stop-color:#008BAB"/>
		</radialGradient>
		<path fill="url(#SVGID_10_)" d="M239.834,357.606c0.82,0.829,1.659,1.639,2.512,2.446
			c-37.288,15.764-71.499,29.035-101.341,39.574c-10.898,1.675-21.901,2.888-32.987,3.548c-5.148,0.308-11.666-0.714-13.318-3.893
			C111.452,402.277,166.325,387.252,239.834,357.606z"/>
		<radialGradient id="SVGID_11_" cx="452.1689" cy="252.2388" r="50.4267" gradientUnits="userSpaceOnUse">
			<stop  offset="0" style="stop-color:#A9FAFF"/>
			<stop  offset="1" style="stop-color:#70B7F8"/>
		</radialGradient>
		<path fill="url(#SVGID_11_)" d="M512.295,213.891c-6.601,8.894-13.945,17.223-21.83,25.016
			c-6.688,3.73-13.788,7.633-21.271,11.688c-3.537,1.926-7.099,3.831-10.626,5.724c-22.297,11.978-44.365,23.388-66.061,34.268
			c-0.133-1.15-0.281-2.316-0.465-3.465c12.755-6.644,25.666-13.543,38.645-20.682C475.701,241.663,501.637,224.454,512.295,213.891
			z"/>
		<radialGradient id="SVGID_12_" cx="301.7178" cy="237.1836" r="11.654" gradientUnits="userSpaceOnUse">
			<stop  offset="0" style="stop-color:#A9FAFF"/>
			<stop  offset="1" style="stop-color:#70B7F8"/>
		</radialGradient>
		<path fill="url(#SVGID_12_)" d="M310.484,245.274c13.59-7.415-5.323-24.055-17.574-14.89
			C278.429,241.218,301.419,250.227,310.484,245.274z"/>
		
			<radialGradient id="SVGID_13_" cx="390.1113" cy="160.5278" r="284.7254" gradientTransform="matrix(1 0.0038 -0.0038 1 0.7314 1.355)" gradientUnits="userSpaceOnUse">
			<stop  offset="0" style="stop-color:#A9FAFF"/>
			<stop  offset="1" style="stop-color:#70B7F8"/>
		</radialGradient>
		<path fill="url(#SVGID_13_)" d="M339.933,283.194c-5.409-12.596,12.117-21.739,14.873-4.729c0.55,3.397-0.491,7.296-3.399,9.135
			C347.469,290.09,341.769,287.473,339.933,283.194z"/>
	</g>
</g>
</svg>
