<?xml version="1.0" encoding="utf-8"?>
<!-- Generator: Adobe Illustrator 16.0.3, SVG Export Plug-In . SVG Version: 6.00 Build 0)  -->
<!DOCTYPE svg PUBLIC "-//W3C//DTD SVG 1.1//EN" "http://www.w3.org/Graphics/SVG/1.1/DTD/svg11.dtd">
<svg version="1.1" id="Layer_1" xmlns="http://www.w3.org/2000/svg" xmlns:xlink="http://www.w3.org/1999/xlink" x="0px" y="0px"
	 width="612px" height="568px" viewBox="0 0 612 568" enable-background="new 0 0 612 568" xml:space="preserve">
<path fill="#FFFFFF" d="M322.492,31.368c139.559,0,252.669,113.042,252.727,252.554c0,139.533-113.017,252.68-252.539,252.711
	c-139.554,0-252.664-113.053-252.727-252.555c0-67.038,26.59-131.31,73.936-178.708C191.235,57.92,255.46,31.274,322.492,31.368z
	 M164.542,433.353c13.511-7.091,29.37-8.754,45.199-10.479c28.278-3.005,56.567-6.082,67.266-47.117
	c0.094-0.271,0.151-0.521,0.322-0.738c-13.095-11.219-23.881-20.897-25.96-43.885h-1.211c-2.719-0.031-5.453-0.707-7.793-2.027
	c-3.93-2.464-6.991-6.186-8.681-10.49c-2.017-5.125-3.229-10.511-3.441-15.979l0,0c0-1.685,0-4.854,0-7.87
	c0-3.035,0-5.344,0.474-6.789c0.062-0.426,0.15-0.863,0.327-1.227c2.796-7.839,7.049-10.396,12.767-10.147l-3.784-2.484
	c-2.007-25.264,4.106-68.971-23.465-77.278c51.853-64.053,111.576-98.685,156.433-41.95c54.016,2.859,75.713,88.766,32.624,124.822
	l-0.322,2.214c1.689-0.53,3.384-0.863,5.068-1.019c2.969-0.281,6.103,0.28,8.837,1.726c2.891,1.528,5.152,4.18,6.041,7.402
	c1.186,4.211,1.029,8.671-0.244,12.85c-2.012,6.207-4.502,13.34-6.836,19.391c-0.738,2.557-2.08,4.887-4.092,6.736
	c-2.646,1.902-5.868,2.641-9.097,2.215h-1.918c-0.416,21.323-10.854,31.127-24.671,43.915l-2.101,1.997
	c12.289,34.578,37.698,38.852,63.004,43.094c14.971,2.494,29.755,4.979,42.371,12.361c82.159-87.82,77.501-225.544-10.277-307.553
	c-87.788-82.123-225.466-77.444-307.547,10.334C85.382,219.286,85.626,349.754,164.542,433.353z"/>
</svg>
